Russolo-10ptMedium.ufo
<glyph name="percent" format="2">
  <advance width="1653"/>
  <unicode hex="0025"/>
  <note>
percent
</note>
  <outline>
    <contour>
      <point x="231" y="-23" type="line"/>
      <point x="396" y="-23" type="line"/>
      <point x="1404" y="1441" type="line"/>
      <point x="1240" y="1441" type="line"/>
    </contour>
    <contour>
      <point x="1203" y="-26" type="curve" smooth="yes"/>
      <point x="1388" y="-26"/>
      <point x="1514" y="144"/>
      <point x="1514" y="384" type="curve" smooth="yes"/>
      <point x="1514" y="620"/>
      <point x="1383" y="795"/>
      <point x="1203" y="795" type="curve" smooth="yes"/>
      <point x="1026" y="795"/>
      <point x="893" y="618"/>
      <point x="893" y="384" type="curve" smooth="yes"/>
      <point x="893" y="144"/>
      <point x="1020" y="-26"/>
    </contour>
    <contour>
      <point x="1203" y="96" type="curve" smooth="yes"/>
      <point x="1102" y="96"/>
      <point x="1053" y="205"/>
      <point x="1053" y="384" type="curve" smooth="yes"/>
      <point x="1053" y="565"/>
      <point x="1102" y="674"/>
      <point x="1203" y="674" type="curve" smooth="yes"/>
      <point x="1305" y="674"/>
      <point x="1355" y="564"/>
      <point x="1355" y="384" type="curve" smooth="yes"/>
      <point x="1355" y="205"/>
      <point x="1306" y="96"/>
    </contour>
    <contour>
      <point x="450" y="638" type="curve" smooth="yes"/>
      <point x="634" y="638"/>
      <point x="761" y="807"/>
      <point x="761" y="1049" type="curve" smooth="yes"/>
      <point x="761" y="1283"/>
      <point x="629" y="1459"/>
      <point x="450" y="1459" type="curve" smooth="yes"/>
      <point x="271" y="1459"/>
      <point x="139" y="1282"/>
      <point x="139" y="1049" type="curve" smooth="yes"/>
      <point x="139" y="808"/>
      <point x="266" y="638"/>
    </contour>
    <contour>
      <point x="450" y="760" type="curve" smooth="yes"/>
      <point x="349" y="760"/>
      <point x="300" y="868"/>
      <point x="300" y="1049" type="curve" smooth="yes"/>
      <point x="300" y="1231"/>
      <point x="349" y="1337"/>
      <point x="450" y="1337" type="curve" smooth="yes"/>
      <point x="551" y="1337"/>
      <point x="601" y="1228"/>
      <point x="601" y="1049" type="curve" smooth="yes"/>
      <point x="601" y="870"/>
      <point x="551" y="760"/>
    </contour>
  </outline>
</glyph>
<glyph name="parenright" format="2">
  <advance width="651"/>
  <unicode hex="0029"/>
  <note>
parenright
</note>
  <outline>
    <contour>
      <point x="174" y="-395" type="line"/>
      <point x="433" y="-66"/>
      <point x="546" y="230"/>
      <point x="546" y="581" type="curve" smooth="yes"/>
      <point x="546" y="931"/>
      <point x="433" y="1226"/>
      <point x="177" y="1550" type="curve"/>
      <point x="97" y="1501" type="line"/>
      <point x="271" y="1206"/>
      <point x="375" y="877"/>
      <point x="375" y="576" type="curve" smooth="yes"/>
      <point x="375" y="275"/>
      <point x="273" y="-49"/>
      <point x="100" y="-333" type="curve"/>
    </contour>
  </outline>
</glyph>
<glyph name="plus" format="2">
  <advance width="1127"/>
  <unicode hex="002B"/>
  <note>
plus
</note>
  <outline>
    <contour>
      <point x="140" y="571" type="line"/>
      <point x="987" y="571" type="line"/>
      <point x="987" y="766" type="line"/>
      <point x="140" y="766" type="line"/>
    </contour>
    <contour>
      <point x="488" y="245" type="line"/>
      <point x="639" y="245" type="line"/>
      <point x="639" y="1092" type="line"/>
      <point x="488" y="1092" type="line"/>
    </contour>
  </outline>
</glyph>
<glyph name="period" format="2">
  <advance width="546"/>
  <unicode hex="002E"/>
  <note>
period
</note>
  <outline>
    <contour>
      <point x="273" y="-8" type="curve" smooth="yes"/>
      <point x="352" y="-8"/>
      <point x="416" y="48"/>
      <point x="416" y="136" type="curve" smooth="yes"/>
      <point x="416" y="224"/>
      <point x="352" y="280"/>
      <point x="273" y="280" type="curve" smooth="yes"/>
      <point x="194" y="280"/>
      <point x="130" y="224"/>
      <point x="130" y="136" type="curve" smooth="yes"/>
      <point x="130" y="49"/>
      <point x="193" y="-8"/>
    </contour>
  </outline>
</glyph>
<glyph name="two" format="2">
  <advance width="1210"/>
  <unicode hex="0032"/>
  <note>
two
</note>
  <outline>
    <contour>
      <point x="96" y="0" type="line"/>
      <point x="1107" y="0" type="line"/>
      <point x="1107" y="167" type="line"/>
      <point x="351" y="167" type="line"/>
      <point x="315" y="87" type="line"/>
      <point x="531" y="258"/>
      <point x="785" y="521"/>
      <point x="846" y="583" type="curve" smooth="yes"/>
      <point x="1025" y="772"/>
      <point x="1082" y="888"/>
      <point x="1082" y="1037" type="curve" smooth="yes"/>
      <point x="1082" y="1295"/>
      <point x="900" y="1461"/>
      <point x="623" y="1461" type="curve" smooth="yes"/>
      <point x="339" y="1461"/>
      <point x="164" y="1289"/>
      <point x="164" y="1083" type="curve" smooth="yes"/>
      <point x="164" y="1065"/>
      <point x="165" y="1031"/>
      <point x="172" y="980" type="curve"/>
      <point x="362" y="983" type="line"/>
      <point x="362" y="1060" type="line" smooth="yes"/>
      <point x="362" y="1198"/>
      <point x="442" y="1340"/>
      <point x="614" y="1340" type="curve" smooth="yes"/>
      <point x="744" y="1340"/>
      <point x="873" y="1271"/>
      <point x="873" y="1078" type="curve" smooth="yes"/>
      <point x="873" y="897"/>
      <point x="742" y="680"/>
      <point x="513" y="438" type="curve" smooth="yes"/>
    </contour>
  </outline>
</glyph>
<glyph name="six" format="2">
  <advance width="1189"/>
  <unicode hex="0036"/>
  <note>
six
</note>
  <outline>
    <contour>
      <point x="586" y="-33" type="curve" smooth="yes"/>
      <point x="921" y="-35"/>
      <point x="1086" y="165"/>
      <point x="1086" y="447" type="curve" smooth="yes"/>
      <point x="1086" y="726"/>
      <point x="909" y="916"/>
      <point x="618" y="916" type="curve" smooth="yes"/>
      <point x="464" y="916"/>
      <point x="289" y="844"/>
      <point x="211" y="632" type="curve"/>
      <point x="293" y="656" type="line"/>
      <point x="296" y="805"/>
      <point x="321" y="922"/>
      <point x="421" y="1053" type="curve" smooth="yes"/>
      <point x="481" y="1149"/>
      <point x="619" y="1281"/>
      <point x="850" y="1311" type="curve"/>
      <point x="848" y="1457" type="line"/>
      <point x="547" y="1438"/>
      <point x="369" y="1251"/>
      <point x="296" y="1148" type="curve" smooth="yes"/>
      <point x="109" y="919"/>
      <point x="107" y="621"/>
      <point x="107" y="525" type="curve" smooth="yes"/>
      <point x="107" y="92"/>
      <point x="323" y="-31"/>
    </contour>
    <contour>
      <point x="598" y="106" type="curve" smooth="yes"/>
      <point x="406" y="108"/>
      <point x="309" y="271"/>
      <point x="311" y="460" type="curve" smooth="yes"/>
      <point x="313" y="686"/>
      <point x="468" y="771"/>
      <point x="619" y="771" type="curve" smooth="yes"/>
      <point x="834" y="771"/>
      <point x="889" y="594"/>
      <point x="889" y="440" type="curve" smooth="yes"/>
      <point x="889" y="221"/>
      <point x="761" y="105"/>
    </contour>
  </outline>
</glyph>
<glyph name="question" format="2">
  <advance width="1101"/>
  <unicode hex="003F"/>
  <note>
question
</note>
  <outline>
    <contour>
      <point x="448" y="448" type="curve"/>
      <point x="563" y="448" type="line"/>
      <point x="561" y="483"/>
      <point x="550" y="570"/>
      <point x="550" y="608" type="curve" smooth="yes"/>
      <point x="550" y="847"/>
      <point x="980" y="823"/>
      <point x="980" y="1154" type="curve" smooth="yes"/>
      <point x="980" y="1356"/>
      <point x="815" y="1462"/>
      <point x="525" y="1462" type="curve" smooth="yes"/>
      <point x="247" y="1462"/>
      <point x="119" y="1364"/>
      <point x="119" y="1156" type="curve" smooth="yes"/>
      <point x="119" y="1139"/>
      <point x="119" y="1123"/>
      <point x="119" y="1079" type="curve"/>
      <point x="306" y="1079" type="line"/>
      <point x="293" y="1129"/>
      <point x="292" y="1156"/>
      <point x="292" y="1168" type="curve" smooth="yes"/>
      <point x="292" y="1281"/>
      <point x="384" y="1335"/>
      <point x="523" y="1335" type="curve" smooth="yes"/>
      <point x="681" y="1335"/>
      <point x="767" y="1256"/>
      <point x="767" y="1136" type="curve" smooth="yes"/>
      <point x="767" y="897"/>
      <point x="428" y="980"/>
      <point x="428" y="597" type="curve" smooth="yes"/>
      <point x="428" y="538"/>
      <point x="436" y="488"/>
    </contour>
    <contour>
      <point x="509" y="-21" type="curve" smooth="yes"/>
      <point x="578" y="-21"/>
      <point x="626" y="39"/>
      <point x="626" y="115" type="curve" smooth="yes"/>
      <point x="626" y="190"/>
      <point x="578" y="249"/>
      <point x="509" y="249" type="curve" smooth="yes"/>
      <point x="440" y="249"/>
      <point x="392" y="190"/>
      <point x="392" y="115" type="curve" smooth="yes"/>
      <point x="392" y="39"/>
      <point x="440" y="-21"/>
    </contour>
  </outline>
</glyph>
<glyph name="B" format="2">
  <advance width="1282"/>
  <unicode hex="0042"/>
  <note>
B
</note>
  <anchor x="629" y="10" name="bottom"/>
  <anchor x="629" y="1430" name="top"/>
  <outline>
    <contour>
      <point x="141" y="0" type="line"/>
      <point x="588" y="0" type="line" smooth="yes"/>
      <point x="976" y="0"/>
      <point x="1174" y="141"/>
      <point x="1174" y="419" type="curve" smooth="yes"/>
      <point x="1174" y="627"/>
      <point x="1047" y="769"/>
      <point x="833" y="798" type="curve"/>
      <point x="829" y="716" type="line"/>
      <point x="1016" y="764"/>
      <point x="1115" y="877"/>
      <point x="1115" y="1041" type="curve" smooth="yes"/>
      <point x="1115" y="1286"/>
      <point x="922" y="1433"/>
      <point x="598" y="1433" type="curve" smooth="yes"/>
      <point x="141" y="1433" type="line"/>
    </contour>
    <contour>
      <point x="355" y="12" type="line"/>
      <point x="355" y="792" type="line"/>
      <point x="272" y="694" type="line"/>
      <point x="630" y="694" type="line" smooth="yes"/>
      <point x="820" y="694"/>
      <point x="941" y="589"/>
      <point x="941" y="423" type="curve" smooth="yes"/>
      <point x="941" y="239"/>
      <point x="799" y="127"/>
      <point x="566" y="127" type="curve" smooth="yes"/>
      <point x="190" y="127" type="line"/>
    </contour>
    <contour>
      <point x="355" y="720" type="line"/>
      <point x="355" y="1415" type="line"/>
      <point x="168" y="1306" type="line"/>
      <point x="588" y="1306" type="line" smooth="yes"/>
      <point x="798" y="1306"/>
      <point x="886" y="1179"/>
      <point x="886" y="1029" type="curve" smooth="yes"/>
      <point x="886" y="874"/>
      <point x="786" y="819"/>
      <point x="598" y="819" type="curve" smooth="yes"/>
      <point x="284" y="819" type="line"/>
    </contour>
  </outline>
</glyph>
<glyph name="F" format="2">
  <advance width="1128"/>
  <unicode hex="0046"/>
  <note>
F
</note>
  <anchor x="550" y="10" name="bottom"/>
  <anchor x="550" y="1430" name="top"/>
  <outline>
    <contour>
      <point x="141" y="0" type="line"/>
      <point x="355" y="0" type="line"/>
      <point x="355" y="776" type="line"/>
      <point x="193" y="658" type="line"/>
      <point x="1017" y="658" type="line"/>
      <point x="1017" y="784" type="line"/>
      <point x="179" y="784" type="line"/>
      <point x="355" y="666" type="line"/>
      <point x="355" y="1416" type="line"/>
      <point x="185" y="1306" type="line"/>
      <point x="1017" y="1306" type="line"/>
      <point x="1017" y="1433" type="line"/>
      <point x="141" y="1433" type="line"/>
    </contour>
  </outline>
</glyph>
<glyph name="H" format="2">
  <advance width="1541"/>
  <unicode hex="0048"/>
  <note>
H
</note>
  <anchor x="771" y="10" name="bottom"/>
  <anchor x="771" y="715" name="center"/>
  <anchor x="771" y="1430" name="top"/>
  <anchor x="8" y="1430" name="topleft"/>
  <outline>
    <contour>
      <point x="141" y="0" type="line"/>
      <point x="353" y="0" type="line"/>
      <point x="353" y="793" type="line"/>
      <point x="175" y="670" type="line"/>
      <point x="1356" y="670" type="line"/>
      <point x="1188" y="793" type="line"/>
      <point x="1188" y="0" type="line"/>
      <point x="1400" y="0" type="line"/>
      <point x="1400" y="1433" type="line"/>
      <point x="1188" y="1433" type="line"/>
      <point x="1188" y="675" type="line"/>
      <point x="1356" y="798" type="line"/>
      <point x="175" y="798" type="line"/>
      <point x="353" y="675" type="line"/>
      <point x="353" y="1433" type="line"/>
      <point x="141" y="1433" type="line"/>
    </contour>
  </outline>
</glyph>
<glyph name="I" format="2">
  <advance width="495"/>
  <unicode hex="0049"/>
  <note>
I
</note>
  <anchor x="248" y="10" name="bottom"/>
  <anchor x="273" y="0" name="ogonek"/>
  <anchor x="248" y="1430" name="top"/>
  <anchor x="7" y="1430" name="topleft"/>
  <outline>
    <contour>
      <point x="141" y="0" type="line"/>
      <point x="355" y="0" type="line"/>
      <point x="355" y="1433" type="line"/>
      <point x="141" y="1433" type="line"/>
    </contour>
  </outline>
</glyph>
<glyph name="J" format="2">
  <advance width="861"/>
  <unicode hex="004A"/>
  <note>
J
</note>
  <anchor x="448" y="10" name="bottom"/>
  <anchor x="448" y="1430" name="top"/>
  <outline>
    <contour>
      <point x="106" y="-45" type="line"/>
      <point x="170" y="-98"/>
      <point x="283" y="-150"/>
      <point x="400" y="-150" type="curve" smooth="yes"/>
      <point x="606" y="-150"/>
      <point x="723" y="9"/>
      <point x="723" y="276" type="curve" smooth="yes"/>
      <point x="723" y="1433" type="line"/>
      <point x="509" y="1433" type="line"/>
      <point x="509" y="291" type="line" smooth="yes"/>
      <point x="509" y="48"/>
      <point x="488" y="-14"/>
      <point x="384" y="-14" type="curve" smooth="yes"/>
      <point x="271" y="-14"/>
      <point x="172" y="55"/>
      <point x="106" y="104" type="curve"/>
    </contour>
  </outline>
</glyph>
<glyph name="L" format="2">
  <advance width="1151"/>
  <unicode hex="004C"/>
  <note>
L
</note>
  <anchor x="576" y="10" name="bottom"/>
  <anchor x="237" y="715" name="center"/>
  <anchor x="769" y="791" name="dot"/>
  <anchor x="1082" y="10" name="ogonek"/>
  <anchor x="384" y="1430" name="top"/>
  <anchor x="-47" y="1430" name="topleft"/>
  <anchor x="814" y="1430" name="topright"/>
  <outline>
    <contour>
      <point x="141" y="0" type="line"/>
      <point x="1046" y="0" type="line"/>
      <point x="1046" y="117" type="line"/>
      <point x="188" y="117" type="line"/>
      <point x="359" y="18" type="line"/>
      <point x="359" y="1430" type="line"/>
      <point x="141" y="1430" type="line"/>
    </contour>
  </outline>
</glyph>
<glyph name="N" format="2">
  <advance width="1561"/>
  <unicode hex="004E"/>
  <note>
N
</note>
  <anchor x="781" y="10" name="bottom"/>
  <anchor x="781" y="1430" name="top"/>
  <outline>
    <contour>
      <point x="146" y="0" type="line"/>
      <point x="321" y="0" type="line"/>
      <point x="321" y="1200" type="line"/>
      <point x="214" y="1228" type="line"/>
      <point x="1223" y="0" type="line"/>
      <point x="1420" y="0" type="line"/>
      <point x="1420" y="1433" type="line"/>
      <point x="1244" y="1433" type="line"/>
      <point x="1244" y="176" type="line"/>
      <point x="1333" y="211" type="line"/>
      <point x="342" y="1433" type="line"/>
      <point x="141" y="1433" type="line"/>
    </contour>
  </outline>
</glyph>
<glyph name="Q" format="2">
  <advance width="1655"/>
  <unicode hex="0051"/>
  <note>
Q
</note>
  <anchor x="787" y="51" name="bottom"/>
  <anchor x="787" y="1384" name="top"/>
  <anchor x="828" y="756.85285" name="center"/>
  <anchor x="955" y="39.0" name="ogonek"/>
  <anchor x="25" y="1474.7057" name="topleft"/>
  <anchor x="1421" y="1474.7057" name="topright"/>
  <outline>
    <contour>
      <point x="1055" y="-380" type="curve" smooth="yes"/>
      <point x="1178" y="-380"/>
      <point x="1202" y="-367"/>
      <point x="1196" y="-241" type="curve"/>
      <point x="1160" y="-241"/>
      <point x="1124" y="-241"/>
      <point x="1088" y="-241" type="curve" smooth="yes"/>
      <point x="951" y="-241"/>
      <point x="878" y="-202"/>
      <point x="878" y="-130" type="curve" smooth="yes"/>
      <point x="878" y="86" type="line"/>
      <point x="677" y="86" type="line"/>
      <point x="677" y="-129" type="line" smooth="yes"/>
      <point x="677" y="-238"/>
      <point x="746" y="-310"/>
      <point x="823" y="-341" type="curve" smooth="yes"/>
      <point x="893" y="-370"/>
      <point x="948" y="-380"/>
    </contour>
    <component base="O" yScale="1.00399" yOffset="39"/>
  </outline>
</glyph>
<glyph name="R" format="2">
  <advance width="1229"/>
  <unicode hex="0052"/>
  <note>
R
</note>
  <anchor x="607" y="10" name="bottom"/>
  <anchor x="607" y="1430" name="top"/>
  <outline>
    <contour>
      <point x="141" y="0" type="line"/>
      <point x="350" y="0" type="line"/>
      <point x="350" y="692" type="line"/>
      <point x="251" y="612" type="line"/>
      <point x="538" y="612" type="line"/>
      <point x="617" y="612" type="line"/>
      <point x="873" y="640"/>
      <point x="1066" y="755"/>
      <point x="1066" y="1019" type="curve" smooth="yes"/>
      <point x="1066" y="1300"/>
      <point x="847" y="1433"/>
      <point x="525" y="1433" type="curve" smooth="yes"/>
      <point x="141" y="1433" type="line"/>
    </contour>
    <contour>
      <point x="288" y="732" type="line"/>
      <point x="350" y="645" type="line"/>
      <point x="350" y="1404" type="line"/>
      <point x="184" y="1313" type="line"/>
      <point x="501" y="1313" type="line" smooth="yes"/>
      <point x="742" y="1313"/>
      <point x="854" y="1234"/>
      <point x="854" y="1022" type="curve" smooth="yes"/>
      <point x="854" y="821"/>
      <point x="752" y="732"/>
      <point x="501" y="732" type="curve" smooth="yes"/>
    </contour>
    <contour>
      <point x="457" y="612" type="line"/>
      <point x="543" y="612"/>
      <point x="649" y="609"/>
      <point x="723" y="557" type="curve" smooth="yes"/>
      <point x="774" y="520"/>
      <point x="807" y="494"/>
      <point x="872" y="208" type="curve" smooth="yes"/>
      <point x="886" y="143"/>
      <point x="902" y="70"/>
      <point x="917" y="0" type="curve"/>
      <point x="1125" y="0" type="line"/>
      <point x="1099" y="95"/>
      <point x="1072" y="218"/>
      <point x="1058" y="283" type="curve" smooth="yes"/>
      <point x="1012" y="497"/>
      <point x="960" y="566"/>
      <point x="926" y="599" type="curve" smooth="yes"/>
      <point x="876" y="648"/>
      <point x="838" y="655"/>
      <point x="789" y="666" type="curve"/>
    </contour>
  </outline>
</glyph>
<glyph name="U" format="2">
  <advance width="1502"/>
  <unicode hex="0055"/>
  <note>
U
</note>
  <anchor x="752" y="10" name="bottom"/>
  <anchor x="887" y="0" name="ogonek"/>
  <anchor x="752" y="1430" name="top"/>
  <anchor x="1398" y="1430" name="topright"/>
  <outline>
    <contour>
      <point x="751" y="-32" type="curve" smooth="yes"/>
      <point x="1074" y="-32"/>
      <point x="1373" y="220"/>
      <point x="1373" y="541" type="curve" smooth="yes"/>
      <point x="1373" y="1433" type="line"/>
      <point x="1197" y="1433" type="line"/>
      <point x="1193" y="530" type="line" smooth="yes"/>
      <point x="1192" y="286"/>
      <point x="1003" y="96"/>
      <point x="751" y="96" type="curve" smooth="yes"/>
      <point x="517" y="96"/>
      <point x="327" y="261"/>
      <point x="327" y="545" type="curve" smooth="yes"/>
      <point x="327" y="1433" type="line"/>
      <point x="129" y="1433" type="line"/>
      <point x="129" y="552" type="line" smooth="yes"/>
      <point x="129" y="223"/>
      <point x="425" y="-32"/>
    </contour>
  </outline>
</glyph>
<glyph name="asciicircum" format="2">
  <advance width="1183"/>
  <unicode hex="005E"/>
  <note>
asciicircum
</note>
  <outline>
    <contour>
      <point x="133" y="792" type="line"/>
      <point x="310" y="792" type="line"/>
      <point x="650" y="1336" type="line"/>
      <point x="533" y="1333" type="line"/>
      <point x="873" y="792" type="line"/>
      <point x="1050" y="792" type="line"/>
      <point x="645" y="1444" type="line"/>
      <point x="536" y="1444" type="line"/>
    </contour>
  </outline>
</glyph>
<glyph name="underscore" format="2">
  <advance width="1525"/>
  <unicode hex="005F"/>
  <note>
underscore
</note>
  <outline>
    <contour>
      <point x="88" y="-375" type="line"/>
      <point x="1437" y="-375" type="line"/>
      <point x="1437" y="-229" type="line"/>
      <point x="88" y="-229" type="line"/>
    </contour>
  </outline>
</glyph>
<glyph name="a" format="2">
  <advance width="1237"/>
  <unicode hex="0061"/>
  <note>
a
</note>
  <anchor x="581" y="-3" name="bottom"/>
  <anchor x="1042" y="0" name="ogonek"/>
  <anchor x="591" y="1016" name="top"/>
  <outline>
    <contour>
      <point x="555" y="-34" type="curve" smooth="yes"/>
      <point x="782" y="-34"/>
      <point x="928" y="88"/>
      <point x="983" y="328" type="curve"/>
      <point x="927" y="382" type="line"/>
      <point x="920" y="0" type="line"/>
      <point x="1128" y="0" type="line"/>
      <point x="1128" y="1001" type="line"/>
      <point x="919" y="1001" type="line"/>
      <point x="919" y="601" type="line"/>
      <point x="981" y="647" type="line"/>
      <point x="928" y="894"/>
      <point x="777" y="1028"/>
      <point x="552" y="1028" type="curve" smooth="yes"/>
      <point x="272" y="1028"/>
      <point x="83" y="809"/>
      <point x="83" y="487" type="curve" smooth="yes"/>
      <point x="83" y="173"/>
      <point x="269" y="-34"/>
    </contour>
    <contour>
      <point x="582" y="100" type="curve" smooth="yes"/>
      <point x="390" y="100"/>
      <point x="281" y="235"/>
      <point x="281" y="495" type="curve" smooth="yes"/>
      <point x="281" y="755"/>
      <point x="390" y="893"/>
      <point x="579" y="893" type="curve" smooth="yes"/>
      <point x="769" y="893"/>
      <point x="897" y="722"/>
      <point x="897" y="485" type="curve" smooth="yes"/>
      <point x="897" y="258"/>
      <point x="774" y="100"/>
    </contour>
  </outline>
</glyph>
<glyph name="f" format="2">
  <advance width="853"/>
  <unicode hex="0066"/>
  <note>
f
</note>
  <anchor x="427" y="19" name="bottom"/>
  <anchor x="427" y="1518" name="top"/>
  <outline>
    <contour>
      <point x="286" y="0" type="line"/>
      <point x="490" y="0" type="line"/>
      <point x="490" y="1056" type="line" smooth="yes"/>
      <point x="490" y="1275"/>
      <point x="458" y="1408"/>
      <point x="573" y="1408" type="curve" smooth="yes"/>
      <point x="623" y="1408"/>
      <point x="679" y="1394"/>
      <point x="679" y="1337" type="curve" smooth="yes"/>
      <point x="679" y="1318"/>
      <point x="674" y="1294"/>
      <point x="666" y="1264" type="curve"/>
      <point x="805" y="1264" type="line"/>
      <point x="814" y="1281"/>
      <point x="823" y="1324"/>
      <point x="823" y="1356" type="curve" smooth="yes"/>
      <point x="823" y="1477"/>
      <point x="693" y="1549"/>
      <point x="551" y="1549" type="curve" smooth="yes"/>
      <point x="337" y="1549"/>
      <point x="286" y="1365"/>
      <point x="286" y="1105" type="curve" smooth="yes"/>
    </contour>
    <contour>
      <point x="77" y="842" type="line"/>
      <point x="721" y="842" type="line"/>
      <point x="721" y="974" type="line"/>
      <point x="77" y="974" type="line"/>
    </contour>
  </outline>
</glyph>
<glyph name="l" format="2">
  <advance width="431"/>
  <unicode hex="006C"/>
  <note>
l
</note>
  <anchor x="155" y="0" name="bottom"/>
  <anchor x="219" y="794" name="center"/>
  <anchor x="620" y="794" name="dot"/>
  <anchor x="295" y="1511" name="top"/>
  <anchor x="429" y="1475" name="topright"/>
  <outline>
    <contour>
      <point x="114" y="0" type="line"/>
      <point x="317" y="0" type="line"/>
      <point x="317" y="1518" type="line"/>
      <point x="114" y="1518" type="line"/>
    </contour>
  </outline>
</glyph>
<glyph name="n" format="2">
  <advance width="1116"/>
  <unicode hex="006E"/>
  <note>
n
</note>
  <anchor x="555" y="0" name="bottom"/>
  <anchor x="555" y="1016" name="top"/>
  <outline>
    <contour>
      <point x="108" y="0" type="line"/>
      <point x="320" y="0" type="line"/>
      <point x="320" y="578" type="line" smooth="yes"/>
      <point x="320" y="756"/>
      <point x="424" y="892"/>
      <point x="582" y="892" type="curve" smooth="yes"/>
      <point x="729" y="892"/>
      <point x="805" y="796"/>
      <point x="805" y="564" type="curve" smooth="yes"/>
      <point x="805" y="0" type="line"/>
      <point x="1017" y="0" type="line"/>
      <point x="1017" y="608" type="line" smooth="yes"/>
      <point x="1017" y="878"/>
      <point x="881" y="1028"/>
      <point x="629" y="1028" type="curve" smooth="yes"/>
      <point x="422" y="1028"/>
      <point x="302" y="911"/>
      <point x="265" y="675" type="curve"/>
      <point x="318" y="563" type="line"/>
      <point x="320" y="1001" type="line"/>
      <point x="108" y="1001" type="line"/>
    </contour>
  </outline>
</glyph>
<glyph name="p" format="2">
  <advance width="1228"/>
  <unicode hex="0070"/>
  <note>
p
</note>
  <anchor x="617" y="19" name="bottom"/>
  <anchor x="617" y="996" name="top"/>
  <outline>
    <contour>
      <point x="114" y="-526" type="line"/>
      <point x="321" y="-526" type="line"/>
      <point x="321" y="396" type="line"/>
      <point x="258" y="349" type="line"/>
      <point x="310" y="104"/>
      <point x="461" y="-31"/>
      <point x="682" y="-31" type="curve" smooth="yes"/>
      <point x="960" y="-31"/>
      <point x="1145" y="188"/>
      <point x="1145" y="508" type="curve" smooth="yes"/>
      <point x="1145" y="822"/>
      <point x="961" y="1028"/>
      <point x="679" y="1028" type="curve" smooth="yes"/>
      <point x="454" y="1028"/>
      <point x="310" y="905"/>
      <point x="255" y="665" type="curve"/>
      <point x="318" y="619" type="line"/>
      <point x="318" y="1001" type="line"/>
      <point x="114" y="1001" type="line"/>
    </contour>
    <contour>
      <point x="655" y="103" type="curve" smooth="yes"/>
      <point x="469" y="103"/>
      <point x="343" y="273"/>
      <point x="343" y="510" type="curve" smooth="yes"/>
      <point x="343" y="738"/>
      <point x="464" y="895"/>
      <point x="652" y="895" type="curve" smooth="yes"/>
      <point x="841" y="895"/>
      <point x="947" y="762"/>
      <point x="947" y="501" type="curve" smooth="yes"/>
      <point x="947" y="240"/>
      <point x="841" y="103"/>
    </contour>
  </outline>
</glyph>
<glyph name="q" format="2">
  <advance width="1223"/>
  <unicode hex="0071"/>
  <note>
q
</note>
  <anchor x="613" y="19" name="bottom"/>
  <anchor x="613" y="996" name="top"/>
  <outline>
    <contour>
      <point x="908" y="-526" type="line"/>
      <point x="1114" y="-526" type="line"/>
      <point x="1114" y="1001" type="line"/>
      <point x="910" y="1001" type="line"/>
      <point x="910" y="617" type="line"/>
      <point x="974" y="663" type="line"/>
      <point x="919" y="904"/>
      <point x="775" y="1028"/>
      <point x="549" y="1028" type="curve" smooth="yes"/>
      <point x="267" y="1028"/>
      <point x="83" y="821"/>
      <point x="83" y="508" type="curve" smooth="yes"/>
      <point x="83" y="188"/>
      <point x="269" y="-31"/>
      <point x="546" y="-31" type="curve" smooth="yes"/>
      <point x="768" y="-31"/>
      <point x="918" y="103"/>
      <point x="970" y="349" type="curve"/>
      <point x="908" y="396" type="line"/>
    </contour>
    <contour>
      <point x="573" y="103" type="curve" smooth="yes"/>
      <point x="388" y="103"/>
      <point x="281" y="240"/>
      <point x="281" y="501" type="curve" smooth="yes"/>
      <point x="281" y="760"/>
      <point x="387" y="895"/>
      <point x="576" y="895" type="curve" smooth="yes"/>
      <point x="765" y="895"/>
      <point x="886" y="736"/>
      <point x="886" y="510" type="curve" smooth="yes"/>
      <point x="886" y="273"/>
      <point x="760" y="103"/>
    </contour>
  </outline>
</glyph>
<glyph name="r" format="2">
  <advance width="972"/>
  <unicode hex="0072"/>
  <note>
r
</note>
  <anchor x="171" y="0" name="bottom"/>
  <anchor x="608" y="1016" name="top"/>
  <outline>
    <contour>
      <point x="108" y="0" type="line"/>
      <point x="320" y="0" type="line"/>
      <point x="320" y="598" type="line" smooth="yes"/>
      <point x="320" y="760"/>
      <point x="421" y="892"/>
      <point x="564" y="892" type="curve" smooth="yes"/>
      <point x="638" y="892"/>
      <point x="746" y="876"/>
      <point x="728" y="769" type="curve" smooth="yes"/>
      <point x="727" y="750"/>
      <point x="718" y="706"/>
      <point x="700" y="679" type="curve"/>
      <point x="853" y="649" type="line"/>
      <point x="880" y="689"/>
      <point x="894" y="763"/>
      <point x="894" y="808" type="curve" smooth="yes"/>
      <point x="894" y="969"/>
      <point x="744" y="1028"/>
      <point x="612" y="1028" type="curve" smooth="yes"/>
      <point x="415" y="1028"/>
      <point x="314" y="904"/>
      <point x="272" y="675" type="curve"/>
      <point x="318" y="560" type="line"/>
      <point x="320" y="1001" type="line"/>
      <point x="108" y="1001" type="line"/>
    </contour>
  </outline>
</glyph>
<glyph name="y" format="2">
  <advance width="1144"/>
  <unicode hex="0079"/>
  <note>
y
</note>
  <anchor x="820" y="0" name="bottom"/>
  <anchor x="597" y="1001" name="top"/>
  <outline>
    <contour>
      <point x="311" y="-566" type="curve" smooth="yes"/>
      <point x="436" y="-566"/>
      <point x="477" y="-468"/>
      <point x="525" y="-332" type="curve" smooth="yes"/>
      <point x="563" y="-226"/>
      <point x="603" y="-113"/>
      <point x="646" y="-4" type="curve"/>
      <point x="1070" y="1001" type="line"/>
      <point x="930" y="1001" type="line"/>
      <point x="596" y="205" type="line"/>
      <point x="682" y="205" type="line"/>
      <point x="302" y="1001" type="line"/>
      <point x="73" y="1001" type="line"/>
      <point x="578" y="-41" type="line"/>
      <point x="558" y="116" type="line"/>
      <point x="459" y="-193" type="line" smooth="yes"/>
      <point x="403" y="-357"/>
      <point x="386" y="-464"/>
      <point x="308" y="-464" type="curve" smooth="yes"/>
      <point x="242" y="-464"/>
      <point x="219" y="-425"/>
      <point x="218" y="-393" type="curve"/>
      <point x="125" y="-393" type="line"/>
      <point x="131" y="-503"/>
      <point x="196" y="-566"/>
    </contour>
  </outline>
</glyph>
<glyph name=".notdef" format="2">
  <advance width="1235"/>
  <unicode hex="007F"/>
  <note>
.notdef
</note>
  <outline>
    <contour>
      <point x="66" y="-347" type="line"/>
      <point x="1169" y="-347" type="line"/>
      <point x="1169" y="1414" type="line"/>
      <point x="66" y="1414" type="line"/>
    </contour>
    <contour>
      <point x="256" y="-167" type="line"/>
      <point x="256" y="1234" type="line"/>
      <point x="981" y="1234" type="line"/>
      <point x="981" y="-167" type="line"/>
    </contour>
  </outline>
</glyph>
<glyph name="sterling" format="2">
  <advance width="1296"/>
  <unicode hex="00A3"/>
  <note>
sterling
</note>
  <outline>
    <contour>
      <point x="369" y="89" type="curve" smooth="yes"/>
      <point x="524" y="89"/>
      <point x="743" y="256"/>
      <point x="743" y="476" type="curve" smooth="yes"/>
      <point x="743" y="654"/>
      <point x="649" y="718"/>
      <point x="527" y="810" type="curve" smooth="yes"/>
      <point x="395" y="910"/>
      <point x="373" y="1030"/>
      <point x="373" y="1122" type="curve" smooth="yes"/>
      <point x="373" y="1268"/>
      <point x="480" y="1338"/>
      <point x="628" y="1338" type="curve" smooth="yes"/>
      <point x="797" y="1338"/>
      <point x="919" y="1237"/>
      <point x="924" y="1106" type="curve"/>
      <point x="1099" y="1106" type="line"/>
      <point x="1082" y="1332"/>
      <point x="914" y="1461"/>
      <point x="640" y="1461" type="curve" smooth="yes"/>
      <point x="346" y="1461"/>
      <point x="177" y="1296"/>
      <point x="177" y="1072" type="curve" smooth="yes"/>
      <point x="177" y="875"/>
      <point x="297" y="781"/>
      <point x="419" y="699" type="curve" smooth="yes"/>
      <point x="526" y="627"/>
      <point x="542" y="579"/>
      <point x="542" y="461" type="curve" smooth="yes"/>
      <point x="542" y="314"/>
      <point x="352" y="182"/>
      <point x="159" y="178" type="curve"/>
      <point x="253" y="63"/>
      <point x="263" y="89"/>
    </contour>
    <contour>
      <point x="159" y="0" type="line"/>
      <point x="1148" y="0" type="line"/>
      <point x="1148" y="178" type="line"/>
      <point x="159" y="178" type="line"/>
    </contour>
    <contour>
      <point x="156" y="640" type="line"/>
      <point x="1015" y="640" type="line"/>
      <point x="1015" y="769" type="line"/>
      <point x="156" y="769" type="line"/>
    </contour>
  </outline>
</glyph>
<glyph name="brokenbar" format="2">
  <advance width="522"/>
  <unicode hex="00A6"/>
  <note>
brokenbar
</note>
  <outline>
    <contour>
      <point x="173" y="-300" type="line"/>
      <point x="349" y="-300" type="line"/>
      <point x="349" y="495" type="line"/>
      <point x="173" y="495" type="line"/>
    </contour>
    <contour>
      <point x="173" y="897" type="line"/>
      <point x="349" y="897" type="line"/>
      <point x="349" y="1664" type="line"/>
      <point x="173" y="1664" type="line"/>
    </contour>
  </outline>
</glyph>
<glyph name="plusminus" format="2">
  <advance width="1127"/>
  <unicode hex="00B1"/>
  <note>
plusminus
</note>
  <outline>
    <contour>
      <point x="448" y="334" type="line"/>
      <point x="599" y="334" type="line"/>
      <point x="599" y="570" type="line"/>
      <point x="898" y="570" type="line"/>
      <point x="898" y="766" type="line"/>
      <point x="599" y="766" type="line"/>
      <point x="599" y="1002" type="line"/>
      <point x="448" y="1002" type="line"/>
      <point x="448" y="766" type="line"/>
      <point x="149" y="766" type="line"/>
      <point x="149" y="570" type="line"/>
      <point x="448" y="570" type="line"/>
    </contour>
    <contour>
      <point x="149" y="121" type="line"/>
      <point x="897" y="121" type="line"/>
      <point x="897" y="316" type="line"/>
      <point x="149" y="316" type="line"/>
    </contour>
  </outline>
</glyph>
<glyph name="ordmasculine" format="2">
  <advance width="884"/>
  <unicode hex="00BA"/>
  <note>
ordmasculine
</note>
  <outline>
    <contour>
      <point x="442" y="806" type="curve" smooth="yes"/>
      <point x="626" y="806"/>
      <point x="767" y="928"/>
      <point x="767" y="1126" type="curve" smooth="yes"/>
      <point x="767" y="1324"/>
      <point x="627" y="1449"/>
      <point x="442" y="1449" type="curve" smooth="yes"/>
      <point x="256" y="1449"/>
      <point x="119" y="1325"/>
      <point x="119" y="1126" type="curve" smooth="yes"/>
      <point x="119" y="927"/>
      <point x="257" y="806"/>
    </contour>
    <contour>
      <point x="442" y="910" type="curve" smooth="yes"/>
      <point x="335" y="910"/>
      <point x="251" y="990"/>
      <point x="251" y="1126" type="curve" smooth="yes"/>
      <point x="251" y="1262"/>
      <point x="336" y="1345"/>
      <point x="442" y="1345" type="curve" smooth="yes"/>
      <point x="548" y="1345"/>
      <point x="634" y="1262"/>
      <point x="634" y="1126" type="curve" smooth="yes"/>
      <point x="634" y="990"/>
      <point x="548" y="910"/>
    </contour>
    <contour>
      <point x="116" y="641" type="line"/>
      <point x="766" y="641" type="line"/>
      <point x="766" y="722" type="line"/>
      <point x="116" y="722" type="line"/>
    </contour>
  </outline>
</glyph>
<glyph name="AE" format="2">
  <advance width="2031"/>
  <unicode hex="00C6"/>
  <note>
AE
</note>
  <anchor x="1042" y="10" name="bottom"/>
  <anchor x="1042" y="1430" name="top"/>
  <outline>
    <contour>
      <point x="102" y="0" type="line"/>
      <point x="260" y="0" type="line"/>
      <point x="1204" y="1433" type="line"/>
      <point x="1047" y="1433" type="line"/>
    </contour>
    <contour>
      <point x="518" y="427" type="line"/>
      <point x="1246" y="427" type="line"/>
      <point x="1246" y="555" type="line"/>
      <point x="518" y="555" type="line"/>
    </contour>
    <contour>
      <point x="1086" y="0" type="line"/>
      <point x="1916" y="0" type="line"/>
      <point x="1916" y="127" type="line"/>
      <point x="1133" y="127" type="line"/>
      <point x="1300" y="12" type="line"/>
      <point x="1300" y="785" type="line"/>
      <point x="1194" y="665" type="line"/>
      <point x="1916" y="665" type="line"/>
      <point x="1916" y="792" type="line"/>
      <point x="1175" y="792" type="line"/>
      <point x="1300" y="675" type="line"/>
      <point x="1300" y="1423" type="line"/>
      <point x="1077" y="1306" type="line"/>
      <point x="1916" y="1306" type="line"/>
      <point x="1916" y="1433" type="line"/>
      <point x="1086" y="1433" type="line"/>
    </contour>
  </outline>
</glyph>
<glyph name="Thorn" format="2">
  <advance width="1179"/>
  <unicode hex="00DE"/>
  <note>
Thorn
</note>
  <anchor x="590" y="10" name="bottom"/>
  <anchor x="590" y="1430" name="top"/>
  <outline>
    <contour>
      <point x="264" y="306" type="line"/>
      <point x="519" y="306" type="line" smooth="yes"/>
      <point x="690" y="306"/>
      <point x="835" y="344"/>
      <point x="915" y="406" type="curve" smooth="yes"/>
      <point x="1026" y="492"/>
      <point x="1070" y="590"/>
      <point x="1070" y="746" type="curve" smooth="yes"/>
      <point x="1070" y="887"/>
      <point x="1035" y="975"/>
      <point x="944" y="1058" type="curve" smooth="yes"/>
      <point x="864" y="1132"/>
      <point x="709" y="1177"/>
      <point x="520" y="1177" type="curve" smooth="yes"/>
      <point x="263" y="1177" type="line"/>
      <point x="263" y="1057" type="line"/>
      <point x="458" y="1057" type="line" smooth="yes"/>
      <point x="752" y="1057"/>
      <point x="865" y="978"/>
      <point x="865" y="744" type="curve" smooth="yes"/>
      <point x="865" y="507"/>
      <point x="752" y="426"/>
      <point x="458" y="426" type="curve" smooth="yes"/>
      <point x="264" y="426" type="line"/>
    </contour>
    <contour>
      <point x="141" y="0" type="line"/>
      <point x="350" y="0" type="line"/>
      <point x="350" y="1433" type="line"/>
      <point x="141" y="1433" type="line"/>
    </contour>
  </outline>
</glyph>
<glyph name="OE" format="2">
  <advance width="2286"/>
  <unicode hex="0152"/>
  <note>
OE
</note>
  <anchor x="1140" y="10" name="bottom"/>
  <anchor x="1140" y="1430" name="top"/>
  <outline>
    <contour>
      <point x="799" y="-25" type="curve" smooth="yes"/>
      <point x="1210" y="-24"/>
      <point x="1485" y="286"/>
      <point x="1485" y="715" type="curve" smooth="yes"/>
      <point x="1485" y="1144"/>
      <point x="1209" y="1453"/>
      <point x="799" y="1453" type="curve" smooth="yes"/>
      <point x="388" y="1453"/>
      <point x="111" y="1142"/>
      <point x="111" y="712" type="curve" smooth="yes"/>
      <point x="111" y="284"/>
      <point x="387" y="-26"/>
    </contour>
    <contour>
      <point x="799" y="100" type="curve"/>
      <point x="507" y="105"/>
      <point x="333" y="349"/>
      <point x="333" y="712" type="curve" smooth="yes"/>
      <point x="333" y="1077"/>
      <point x="508" y="1323"/>
      <point x="799" y="1328" type="curve"/>
      <point x="1089" y="1323"/>
      <point x="1265" y="1075"/>
      <point x="1265" y="712" type="curve" smooth="yes"/>
      <point x="1265" y="350"/>
      <point x="1091" y="105"/>
    </contour>
    <contour>
      <point x="1275" y="0" type="line"/>
      <point x="2172" y="0" type="line"/>
      <point x="2172" y="127" type="line"/>
      <point x="1259" y="127" type="line"/>
      <point x="1489" y="13" type="line"/>
      <point x="1489" y="783" type="line"/>
      <point x="1337" y="664" type="line"/>
      <point x="2172" y="664" type="line"/>
      <point x="2172" y="791" type="line"/>
      <point x="1306" y="791" type="line"/>
      <point x="1489" y="677" type="line"/>
      <point x="1489" y="1416" type="line"/>
      <point x="1314" y="1306" type="line"/>
      <point x="2172" y="1306" type="line"/>
      <point x="2172" y="1433" type="line"/>
      <point x="1275" y="1433" type="line"/>
    </contour>
  </outline>
</glyph>
<glyph name="gravecomb" format="2">
  <unicode hex="0300"/>
  <note>
grave
</note>
  <anchor x="199" y="965" name="_top"/>
  <anchor x="199" y="1356" name="top"/>
  <outline>
    <contour>
      <point x="284" y="1059" type="curve"/>
      <point x="371" y="1059" type="line"/>
      <point x="321" y="1189"/>
      <point x="261" y="1279"/>
      <point x="224" y="1340" type="curve"/>
      <point x="26" y="1340" type="line"/>
      <point x="73" y="1276"/>
      <point x="167" y="1165"/>
    </contour>
  </outline>
</glyph>
<glyph name="macroncomb" format="2">
  <unicode hex="0304"/>
  <note>
macron
</note>
  <anchor x="388" y="965" name="_top"/>
  <anchor x="388" y="1244" name="top"/>
  <outline>
    <contour>
      <point x="76" y="1120" type="line"/>
      <point x="699" y="1120" type="line"/>
      <point x="699" y="1229" type="line"/>
      <point x="76" y="1229" type="line"/>
    </contour>
  </outline>
</glyph>
<glyph name="hookabovecomb" format="2">
  <unicode hex="0309"/>
  <anchor x="219" y="965" name="_top"/>
  <anchor x="219" y="1487" name="top"/>
  <outline>
    <contour>
      <point x="163" y="1135" type="line"/>
      <point x="307" y="1150"/>
      <point x="390" y="1215"/>
      <point x="390" y="1309" type="curve" smooth="yes"/>
      <point x="390" y="1402"/>
      <point x="313" y="1472"/>
      <point x="207" y="1472" type="curve" smooth="yes"/>
      <point x="138" y="1472"/>
      <point x="75" y="1445"/>
      <point x="47" y="1381" type="curve"/>
      <point x="80" y="1359" type="line"/>
      <point x="109" y="1383"/>
      <point x="136" y="1409"/>
      <point x="203" y="1409" type="curve" smooth="yes"/>
      <point x="265" y="1409"/>
      <point x="295" y="1366"/>
      <point x="295" y="1310" type="curve" smooth="yes"/>
      <point x="295" y="1234"/>
      <point x="240" y="1206"/>
      <point x="163" y="1191" type="curve"/>
    </contour>
    <contour>
      <point x="163" y="1056" type="line"/>
      <point x="249" y="1056" type="line"/>
      <point x="249" y="1192" type="line"/>
      <point x="163" y="1181" type="line"/>
    </contour>
  </outline>
</glyph>
<glyph name="ringcomb" format="2">
  <unicode hex="030A"/>
  <note>
ring
</note>
  <anchor x="263" y="965" name="_top"/>
  <anchor x="263" y="1429" name="top"/>
  <outline>
    <contour>
      <point x="263" y="1055" type="curve" smooth="yes"/>
      <point x="362" y="1055"/>
      <point x="442" y="1130"/>
      <point x="442" y="1234" type="curve" smooth="yes"/>
      <point x="442" y="1338"/>
      <point x="362" y="1413"/>
      <point x="263" y="1413" type="curve" smooth="yes"/>
      <point x="164" y="1413"/>
      <point x="84" y="1338"/>
      <point x="84" y="1234" type="curve" smooth="yes"/>
      <point x="84" y="1130"/>
      <point x="164" y="1055"/>
    </contour>
    <contour>
      <point x="263" y="1135" type="curve" smooth="yes"/>
      <point x="208" y="1135"/>
      <point x="165" y="1176"/>
      <point x="165" y="1234" type="curve" smooth="yes"/>
      <point x="165" y="1292"/>
      <point x="208" y="1333"/>
      <point x="263" y="1333" type="curve" smooth="yes"/>
      <point x="318" y="1333"/>
      <point x="361" y="1292"/>
      <point x="361" y="1234" type="curve" smooth="yes"/>
      <point x="361" y="1176"/>
      <point x="318" y="1135"/>
    </contour>
  </outline>
</glyph>
<glyph name="horncomb" format="2">
  <unicode hex="031B"/>
  <anchor x="387" y="1251" name="_topright"/>
  <anchor x="371" y="1341" name="topright"/>
  <outline>
    <contour>
      <point x="351" y="1341" type="curve"/>
      <point x="252" y="1341" type="line"/>
      <point x="252" y="1268"/>
      <point x="231" y="1178"/>
      <point x="111" y="1177" type="curve"/>
      <point x="111" y="1099" type="line"/>
      <point x="248" y="1098"/>
      <point x="350" y="1184"/>
    </contour>
  </outline>
</glyph>
<glyph name="strokeshortcomb" format="2">
  <unicode hex="0335"/>
  <anchor x="364" y="763" name="_center"/>
  <outline>
    <contour>
      <point x="0" y="713" type="line"/>
      <point x="728" y="713" type="line"/>
      <point x="728" y="814" type="line"/>
      <point x="0" y="814" type="line"/>
    </contour>
  </outline>
</glyph>
<glyph name="strokelongcomb" format="2">
  <unicode hex="0336"/>
  <anchor x="405.0" y="750.0" name="_center"/>
  <outline>
    <contour>
      <point x="57" y="713" type="line"/>
      <point x="754" y="713" type="line"/>
      <point x="754" y="788" type="line"/>
      <point x="57" y="788" type="line"/>
    </contour>
  </outline>
</glyph>
<glyph name="Lje-cy" format="2">
  <advance width="2207"/>
  <unicode hex="0409"/>
  <outline>
    <contour>
      <point x="1200" y="122" type="line"/>
      <point x="1171" y="0" type="line"/>
      <point x="1582" y="-2" type="line" smooth="yes"/>
      <point x="1749" y="-3"/>
      <point x="1873" y="34"/>
      <point x="1972" y="112" type="curve" smooth="yes"/>
      <point x="2059" y="182"/>
      <point x="2113" y="315"/>
      <point x="2113" y="467" type="curve" smooth="yes"/>
      <point x="2113" y="618"/>
      <point x="2060" y="752"/>
      <point x="1972" y="821" type="curve" smooth="yes"/>
      <point x="1872" y="898"/>
      <point x="1749" y="935"/>
      <point x="1582" y="935" type="curve" smooth="yes"/>
      <point x="1261" y="937" type="line"/>
      <point x="1305" y="812" type="line"/>
      <point x="1547" y="813" type="line" smooth="yes"/>
      <point x="1793" y="813"/>
      <point x="1900" y="680"/>
      <point x="1900" y="467" type="curve" smooth="yes"/>
      <point x="1900" y="253"/>
      <point x="1793" y="122"/>
      <point x="1547" y="122" type="curve" smooth="yes"/>
    </contour>
    <contour>
      <point x="514" y="1433" type="line"/>
      <point x="516" y="919"/>
      <point x="506" y="691"/>
      <point x="466" y="502" type="curve" smooth="yes"/>
      <point x="398" y="180"/>
      <point x="290" y="129"/>
      <point x="164" y="129" type="curve" smooth="yes"/>
      <point x="105" y="129" type="line"/>
      <point x="105" y="0" type="line"/>
      <point x="176" y="0" type="line" smooth="yes"/>
      <point x="380" y="0"/>
      <point x="522" y="126"/>
      <point x="581" y="476" type="curve" smooth="yes"/>
      <point x="625" y="733"/>
      <point x="640" y="1135"/>
      <point x="641" y="1354" type="curve"/>
      <point x="546" y="1305" type="line"/>
      <point x="1225" y="1305" type="line"/>
      <point x="1130" y="1400" type="line"/>
      <point x="1130" y="1" type="line"/>
      <point x="1344" y="1" type="line"/>
      <point x="1344" y="1433" type="line"/>
    </contour>
  </outline>
</glyph>
<glyph name="Nje-cy" format="2">
  <advance width="2154"/>
  <unicode hex="040A"/>
  <outline>
    <contour>
      <point x="141" y="0" type="line"/>
      <point x="353" y="0" type="line"/>
      <point x="353" y="793" type="line"/>
      <point x="175" y="670" type="line"/>
      <point x="1288" y="670" type="line"/>
      <point x="1119" y="793" type="line"/>
      <point x="1119" y="0" type="line"/>
      <point x="1331" y="0" type="line"/>
      <point x="1331" y="1433" type="line"/>
      <point x="1119" y="1433" type="line"/>
      <point x="1119" y="675" type="line"/>
      <point x="1288" y="798" type="line"/>
      <point x="175" y="798" type="line"/>
      <point x="353" y="675" type="line"/>
      <point x="353" y="1433" type="line"/>
      <point x="141" y="1433" type="line"/>
    </contour>
    <contour>
      <point x="1148" y="120" type="line"/>
      <point x="1119" y="0" type="line"/>
      <point x="1530" y="-2" type="line" smooth="yes"/>
      <point x="1697" y="-3"/>
      <point x="1821" y="34"/>
      <point x="1919" y="112" type="curve" smooth="yes"/>
      <point x="2007" y="182"/>
      <point x="2060" y="315"/>
      <point x="2060" y="467" type="curve" smooth="yes"/>
      <point x="2060" y="618"/>
      <point x="2008" y="752"/>
      <point x="1919" y="821" type="curve" smooth="yes"/>
      <point x="1820" y="898"/>
      <point x="1697" y="935"/>
      <point x="1530" y="935" type="curve" smooth="yes"/>
      <point x="1208" y="937" type="line"/>
      <point x="1253" y="812" type="line"/>
      <point x="1495" y="813" type="line" smooth="yes"/>
      <point x="1741" y="813"/>
      <point x="1848" y="680"/>
      <point x="1848" y="467" type="curve" smooth="yes"/>
      <point x="1848" y="253"/>
      <point x="1741" y="121"/>
      <point x="1495" y="120" type="curve" smooth="yes"/>
    </contour>
  </outline>
</glyph>
<glyph name="Ii-cy" format="2">
  <advance width="1561"/>
  <unicode hex="0418"/>
  <anchor x="780" y="10" name="bottom"/>
  <anchor x="1541" y="0" name="bottomright"/>
  <anchor x="781" y="1430" name="top"/>
  <outline>
    <contour>
      <point x="1415" y="0" type="line"/>
      <point x="1420" y="1433" type="line"/>
      <point x="1219" y="1433" type="line"/>
      <point x="228" y="211" type="line"/>
      <point x="317" y="176" type="line"/>
      <point x="317" y="1433" type="line"/>
      <point x="141" y="1433" type="line"/>
      <point x="141" y="0" type="line"/>
      <point x="338" y="0" type="line"/>
      <point x="1347" y="1228" type="line"/>
      <point x="1240" y="1200" type="line"/>
      <point x="1240" y="0" type="line"/>
    </contour>
  </outline>
</glyph>
<glyph name="U-cy" format="2">
  <advance width="1250"/>
  <unicode hex="0423"/>
  <guideline x="375" y="446" angle="69.59439999999995"/>
  <anchor x="625" y="1433" name="top"/>
  <outline>
    <contour>
      <point x="260" y="0" type="line"/>
      <point x="367" y="0" type="line"/>
      <point x="500" y="0"/>
      <point x="547" y="41"/>
      <point x="606" y="174" type="curve" smooth="yes"/>
      <point x="1147" y="1433" type="line"/>
      <point x="988" y="1433" type="line"/>
      <point x="462" y="210" type="line" smooth="yes"/>
      <point x="429" y="135"/>
      <point x="397" y="106"/>
      <point x="314" y="106" type="curve" smooth="yes"/>
      <point x="260" y="106" type="line"/>
    </contour>
    <contour>
      <point x="570" y="409" type="line"/>
      <point x="688" y="605" type="line"/>
      <point x="316" y="1433" type="line"/>
      <point x="103" y="1433" type="line"/>
    </contour>
  </outline>
</glyph>
<glyph name="Ef-cy" format="2">
  <advance width="1497"/>
  <unicode hex="0424"/>
  <outline>
    <contour>
      <point x="709" y="186" type="curve"/>
      <point x="709" y="305" type="line"/>
      <point x="467" y="305"/>
      <point x="311" y="458"/>
      <point x="311" y="712" type="curve" smooth="yes"/>
      <point x="311" y="970"/>
      <point x="471" y="1128"/>
      <point x="709" y="1128" type="curve"/>
      <point x="709" y="1247" type="line"/>
      <point x="353" y="1247"/>
      <point x="109" y="1026"/>
      <point x="109" y="708" type="curve" smooth="yes"/>
      <point x="109" y="394"/>
      <point x="346" y="186"/>
    </contour>
    <contour>
      <point x="642" y="0" type="line"/>
      <point x="856" y="0" type="line"/>
      <point x="856" y="1433" type="line"/>
      <point x="642" y="1433" type="line"/>
    </contour>
    <contour>
      <point x="787" y="186" type="line"/>
      <point x="1150" y="186"/>
      <point x="1388" y="394"/>
      <point x="1388" y="708" type="curve" smooth="yes"/>
      <point x="1388" y="1025"/>
      <point x="1143" y="1247"/>
      <point x="787" y="1247" type="curve"/>
      <point x="787" y="1128" type="line"/>
      <point x="1026" y="1128"/>
      <point x="1187" y="966"/>
      <point x="1187" y="708" type="curve" smooth="yes"/>
      <point x="1187" y="454"/>
      <point x="1032" y="305"/>
      <point x="787" y="305" type="curve"/>
    </contour>
  </outline>
</glyph>
<glyph name="Softsign-cy" format="2">
  <advance width="1193"/>
  <unicode hex="042C"/>
  <outline>
    <contour>
      <point x="177" y="0" type="line"/>
      <point x="568" y="-2" type="line" smooth="yes"/>
      <point x="735" y="-3"/>
      <point x="859" y="34"/>
      <point x="958" y="112" type="curve" smooth="yes"/>
      <point x="1046" y="181"/>
      <point x="1099" y="315"/>
      <point x="1099" y="466" type="curve" smooth="yes"/>
      <point x="1099" y="618"/>
      <point x="1046" y="752"/>
      <point x="958" y="821" type="curve" smooth="yes"/>
      <point x="859" y="899"/>
      <point x="735" y="934"/>
      <point x="568" y="935" type="curve" smooth="yes"/>
      <point x="263" y="937" type="line"/>
      <point x="382" y="866" type="line"/>
      <point x="382" y="1433" type="line"/>
      <point x="173" y="1433" type="line"/>
    </contour>
    <contour>
      <point x="382" y="17" type="line"/>
      <point x="382" y="916" type="line"/>
      <point x="307" y="812" type="line"/>
      <point x="534" y="813" type="line" smooth="yes"/>
      <point x="780" y="814"/>
      <point x="886" y="680"/>
      <point x="886" y="466" type="curve" smooth="yes"/>
      <point x="886" y="253"/>
      <point x="780" y="123"/>
      <point x="534" y="122" type="curve" smooth="yes"/>
      <point x="203" y="121" type="line"/>
    </contour>
  </outline>
</glyph>
<glyph name="be-cy" format="2">
  <advance width="1168"/>
  <unicode hex="0431"/>
  <outline>
    <contour>
      <point x="586" y="-34" type="curve" smooth="yes"/>
      <point x="888" y="-34"/>
      <point x="1087" y="160"/>
      <point x="1087" y="453" type="curve" smooth="yes"/>
      <point x="1087" y="749"/>
      <point x="883" y="957"/>
      <point x="586" y="957" type="curve" smooth="yes"/>
      <point x="477" y="957"/>
      <point x="382" y="923"/>
      <point x="308" y="867" type="curve"/>
      <point x="324" y="804" type="line"/>
      <point x="380" y="1031"/>
      <point x="458" y="1187"/>
      <point x="622" y="1219" type="curve" smooth="yes"/>
      <point x="735" y="1237"/>
      <point x="929" y="1249"/>
      <point x="1048" y="1432" type="curve"/>
      <point x="920" y="1453" type="line"/>
      <point x="859" y="1365"/>
      <point x="698" y="1340"/>
      <point x="622" y="1332" type="curve" smooth="yes"/>
      <point x="263" y="1295"/>
      <point x="85" y="920"/>
      <point x="85" y="453" type="curve" smooth="yes"/>
      <point x="85" y="160"/>
      <point x="283" y="-34"/>
    </contour>
    <contour>
      <point x="586" y="94" type="curve" smooth="yes"/>
      <point x="417" y="94"/>
      <point x="306" y="237"/>
      <point x="306" y="458" type="curve" smooth="yes"/>
      <point x="306" y="678"/>
      <point x="420" y="829"/>
      <point x="586" y="829" type="curve" smooth="yes"/>
      <point x="751" y="829"/>
      <point x="866" y="673"/>
      <point x="866" y="453" type="curve" smooth="yes"/>
      <point x="866" y="235"/>
      <point x="756" y="94"/>
    </contour>
  </outline>
</glyph>
<glyph name="ii-cy" format="2">
  <advance width="1132"/>
  <unicode hex="0438"/>
  <anchor x="1112" y="0" name="bottomright"/>
  <anchor x="566" y="1001" name="top"/>
  <outline>
    <contour>
      <point x="94" y="0" type="line"/>
      <point x="298" y="0" type="line"/>
      <point x="907" y="802" type="line"/>
      <point x="828" y="766" type="line"/>
      <point x="828" y="0" type="line"/>
      <point x="1033" y="0" type="line"/>
      <point x="1033" y="1001" type="line"/>
      <point x="833" y="1001" type="line"/>
      <point x="233" y="196" type="line"/>
      <point x="298" y="203" type="line"/>
      <point x="298" y="1001" type="line"/>
      <point x="94" y="1001" type="line"/>
    </contour>
  </outline>
</glyph>
<glyph name="el-cy" format="2">
  <advance width="1151"/>
  <unicode hex="043B"/>
  <outline>
    <contour>
      <point x="831" y="0" type="line"/>
      <point x="1043" y="0" type="line"/>
      <point x="1043" y="1001" type="line"/>
      <point x="372" y="1001" type="line"/>
      <point x="372" y="869" type="line"/>
      <point x="1016" y="869" type="line"/>
      <point x="831" y="985" type="line"/>
    </contour>
    <contour>
      <point x="77" y="0" type="line"/>
      <point x="149" y="0" type="line" smooth="yes"/>
      <point x="307" y="0"/>
      <point x="421" y="37"/>
      <point x="463" y="365" type="curve" smooth="yes"/>
      <point x="482" y="513"/>
      <point x="499" y="863"/>
      <point x="500" y="978" type="curve"/>
      <point x="372" y="978" type="line"/>
      <point x="372" y="888"/>
      <point x="366" y="531"/>
      <point x="341" y="391" type="curve" smooth="yes"/>
      <point x="293" y="125"/>
      <point x="205" y="135"/>
      <point x="120" y="135" type="curve" smooth="yes"/>
      <point x="77" y="135" type="line"/>
    </contour>
  </outline>
</glyph>
<glyph name="te-cy" format="2">
  <advance width="1101"/>
  <unicode hex="0442"/>
  <anchor x="1089" y="0" name="bottomright"/>
  <outline>
    <contour>
      <point x="444" y="0" type="line"/>
      <point x="657" y="0" type="line"/>
      <point x="657" y="980" type="line"/>
      <point x="448" y="863" type="line"/>
      <point x="1024" y="863" type="line"/>
      <point x="1024" y="1001" type="line"/>
      <point x="77" y="1001" type="line"/>
      <point x="77" y="863" type="line"/>
      <point x="653" y="863" type="line"/>
      <point x="444" y="980" type="line"/>
    </contour>
  </outline>
</glyph>
<glyph name="ef-cy" format="2">
  <advance width="1555"/>
  <unicode hex="0444"/>
  <outline>
    <contour>
      <point x="1007" y="-23" type="curve" smooth="yes"/>
      <point x="1318" y="-23"/>
      <point x="1471" y="146"/>
      <point x="1471" y="492" type="curve" smooth="yes"/>
      <point x="1471" y="837"/>
      <point x="1318" y="1010"/>
      <point x="1007" y="1010" type="curve" smooth="yes"/>
      <point x="968" y="1010"/>
      <point x="917" y="1006"/>
      <point x="849" y="967" type="curve"/>
      <point x="855" y="855" type="line"/>
      <point x="907" y="893"/>
      <point x="959" y="902"/>
      <point x="1004" y="902" type="curve" smooth="yes"/>
      <point x="1148" y="902"/>
      <point x="1268" y="748"/>
      <point x="1268" y="494" type="curve" smooth="yes"/>
      <point x="1268" y="238"/>
      <point x="1148" y="85"/>
      <point x="1004" y="85" type="curve" smooth="yes"/>
      <point x="959" y="85"/>
      <point x="907" y="94"/>
      <point x="855" y="133" type="curve"/>
      <point x="849" y="20" type="line"/>
      <point x="917" y="-19"/>
      <point x="968" y="-23"/>
    </contour>
    <contour>
      <point x="548" y="-23" type="curve" smooth="yes"/>
      <point x="588" y="-23"/>
      <point x="638" y="-19"/>
      <point x="706" y="20" type="curve"/>
      <point x="700" y="133" type="line"/>
      <point x="648" y="94"/>
      <point x="595" y="85"/>
      <point x="551" y="85" type="curve" smooth="yes"/>
      <point x="407" y="85"/>
      <point x="287" y="239"/>
      <point x="287" y="494" type="curve" smooth="yes"/>
      <point x="287" y="749"/>
      <point x="407" y="902"/>
      <point x="551" y="902" type="curve" smooth="yes"/>
      <point x="595" y="902"/>
      <point x="648" y="893"/>
      <point x="700" y="855" type="curve"/>
      <point x="706" y="967" type="line"/>
      <point x="638" y="1006"/>
      <point x="586" y="1010"/>
      <point x="548" y="1010" type="curve" smooth="yes"/>
      <point x="236" y="1010"/>
      <point x="84" y="832"/>
      <point x="84" y="492" type="curve" smooth="yes"/>
      <point x="84" y="141"/>
      <point x="238" y="-23"/>
    </contour>
    <contour>
      <point x="684" y="-526" type="line"/>
      <point x="871" y="-526" type="line"/>
      <point x="871" y="1518" type="line"/>
      <point x="684" y="1518" type="line"/>
    </contour>
  </outline>
</glyph>
<glyph name="sha-cy" format="2">
  <advance width="1385"/>
  <unicode hex="0448"/>
  <anchor x="1388" y="0" name="bottomright"/>
  <outline>
    <contour>
      <point x="108" y="0" type="line"/>
      <point x="1277" y="0" type="line"/>
      <point x="1277" y="1001" type="line"/>
      <point x="1077" y="1001" type="line"/>
      <point x="1077" y="133" type="line"/>
      <point x="308" y="133" type="line"/>
      <point x="308" y="1001" type="line"/>
      <point x="108" y="1001" type="line"/>
    </contour>
    <contour>
      <point x="594" y="0" type="line"/>
      <point x="789" y="0" type="line"/>
      <point x="789" y="1001" type="line"/>
      <point x="594" y="1001" type="line"/>
    </contour>
  </outline>
</glyph>
<glyph name="dje-cy" format="2">
  <advance width="1128"/>
  <unicode hex="0452"/>
  <outline>
    <contour>
      <point x="114" y="0" type="line"/>
      <point x="326" y="0" type="line"/>
      <point x="326" y="578" type="line" smooth="yes"/>
      <point x="326" y="756"/>
      <point x="430" y="892"/>
      <point x="587" y="892" type="curve" smooth="yes"/>
      <point x="735" y="892"/>
      <point x="811" y="796"/>
      <point x="811" y="564" type="curve" smooth="yes"/>
      <point x="811" y="0" type="line"/>
      <point x="1023" y="0" type="line"/>
      <point x="1023" y="608" type="line" smooth="yes"/>
      <point x="1023" y="878"/>
      <point x="887" y="1027"/>
      <point x="635" y="1027" type="curve" smooth="yes"/>
      <point x="434" y="1027"/>
      <point x="316" y="918"/>
      <point x="271" y="674" type="curve"/>
      <point x="324" y="564" type="line"/>
      <point x="326" y="1518" type="line"/>
      <point x="114" y="1518" type="line"/>
    </contour>
    <contour>
      <point x="-33" y="1263" type="line"/>
      <point x="486" y="1263" type="line"/>
      <point x="486" y="1395" type="line"/>
      <point x="-33" y="1395" type="line"/>
    </contour>
    <contour>
      <point x="734" y="-569" type="curve" smooth="yes"/>
      <point x="961" y="-569"/>
      <point x="1023" y="-384"/>
      <point x="1023" y="-125" type="curve" smooth="yes"/>
      <point x="1023" y="501" type="line"/>
      <point x="811" y="501" type="line"/>
      <point x="811" y="-75" type="line" smooth="yes"/>
      <point x="811" y="-292"/>
      <point x="832" y="-435"/>
      <point x="730" y="-435" type="curve" smooth="yes"/>
      <point x="698" y="-435"/>
      <point x="631" y="-419"/>
      <point x="631" y="-358" type="curve" smooth="yes"/>
      <point x="631" y="-347"/>
      <point x="632" y="-335"/>
      <point x="639" y="-305" type="curve"/>
      <point x="492" y="-305" type="line"/>
      <point x="489" y="-323"/>
      <point x="487" y="-349"/>
      <point x="487" y="-360" type="curve" smooth="yes"/>
      <point x="487" y="-515"/>
      <point x="606" y="-569"/>
    </contour>
  </outline>
</glyph>
<glyph name="Fita-cy" format="2">
  <advance width="1655"/>
  <unicode hex="0472"/>
  <anchor x="828" y="-11" name="bottom"/>
  <anchor x="828" y="715" name="center"/>
  <anchor x="955" y="0" name="ogonek"/>
  <anchor x="828" y="1430" name="top"/>
  <anchor x="25" y="1430" name="topleft"/>
  <anchor x="1421" y="1430" name="topright"/>
  <outline>
    <contour>
      <point x="1024" y="612" type="curve" smooth="yes"/>
      <point x="1124" y="612"/>
      <point x="1326" y="634"/>
      <point x="1368" y="752" type="curve"/>
      <point x="1368" y="816" type="line"/>
      <point x="1344" y="768"/>
      <point x="1224" y="760"/>
      <point x="1134" y="760" type="curve" smooth="yes"/>
      <point x="891" y="760"/>
      <point x="838" y="818"/>
      <point x="634" y="818" type="curve" smooth="yes"/>
      <point x="530" y="818"/>
      <point x="330" y="794"/>
      <point x="288" y="676" type="curve"/>
      <point x="288" y="610" type="line"/>
      <point x="310" y="652"/>
      <point x="396" y="666"/>
      <point x="578" y="666" type="curve" smooth="yes"/>
      <point x="680" y="666"/>
      <point x="845" y="612"/>
    </contour>
    <component base="O"/>
  </outline>
</glyph>
<glyph name="Izhitsa-cy" format="2">
  <advance width="1791"/>
  <unicode hex="0474"/>
  <anchor x="896" y="1430" name="top"/>
  <outline>
    <contour>
      <point x="769" y="-32" type="line"/>
      <point x="1340" y="1227" type="line" smooth="yes"/>
      <point x="1368" y="1287"/>
      <point x="1405" y="1326"/>
      <point x="1461" y="1326" type="curve" smooth="yes"/>
      <point x="1510" y="1326"/>
      <point x="1541" y="1298"/>
      <point x="1541" y="1242" type="curve" smooth="yes"/>
      <point x="1541" y="1222"/>
      <point x="1537" y="1198"/>
      <point x="1528" y="1169" type="curve"/>
      <point x="1668" y="1169" type="line"/>
      <point x="1677" y="1185"/>
      <point x="1686" y="1230"/>
      <point x="1686" y="1261" type="curve" smooth="yes"/>
      <point x="1686" y="1382"/>
      <point x="1577" y="1453"/>
      <point x="1435" y="1453" type="curve" smooth="yes"/>
      <point x="1244" y="1453"/>
      <point x="1218" y="1309"/>
      <point x="1120" y="1096" type="curve" smooth="yes"/>
      <point x="757" y="276" type="line"/>
      <point x="835" y="276" type="line"/>
      <point x="317" y="1433" type="line"/>
      <point x="103" y="1433" type="line"/>
    </contour>
  </outline>
</glyph>
<glyph name="Shha-cy" format="2">
  <advance width="1264"/>
  <unicode hex="04BA"/>
  <anchor x="1244" y="0" name="bottomright"/>
  <outline>
    <contour>
      <point x="141" y="0" type="line"/>
      <point x="354" y="0" type="line"/>
      <point x="356" y="348" type="line" smooth="yes"/>
      <point x="357" y="614"/>
      <point x="485" y="715"/>
      <point x="665" y="715" type="curve" smooth="yes"/>
      <point x="836" y="715"/>
      <point x="935" y="625"/>
      <point x="935" y="347" type="curve" smooth="yes"/>
      <point x="935" y="0" type="line"/>
      <point x="1148" y="0" type="line"/>
      <point x="1148" y="364" type="line" smooth="yes"/>
      <point x="1148" y="721"/>
      <point x="936" y="844"/>
      <point x="699" y="844" type="curve" smooth="yes"/>
      <point x="483" y="844"/>
      <point x="361" y="742"/>
      <point x="307" y="554" type="curve"/>
      <point x="355" y="539" type="line"/>
      <point x="355" y="1433" type="line"/>
      <point x="141" y="1433" type="line"/>
    </contour>
  </outline>
</glyph>
<glyph name="perthousand" format="2">
  <advance width="2497"/>
  <unicode hex="2030"/>
  <note>
perthousand
</note>
  <outline>
    <contour>
      <point x="291" y="-22" type="line"/>
      <point x="454" y="-22" type="line"/>
      <point x="1460" y="1440" type="line"/>
      <point x="1297" y="1440" type="line"/>
    </contour>
    <contour>
      <point x="1307" y="-26" type="curve" smooth="yes"/>
      <point x="1490" y="-26"/>
      <point x="1616" y="144"/>
      <point x="1616" y="383" type="curve" smooth="yes"/>
      <point x="1616" y="616"/>
      <point x="1484" y="792"/>
      <point x="1307" y="792" type="curve" smooth="yes"/>
      <point x="1130" y="792"/>
      <point x="997" y="615"/>
      <point x="997" y="383" type="curve" smooth="yes"/>
      <point x="997" y="144"/>
      <point x="1125" y="-26"/>
    </contour>
    <contour>
      <point x="1307" y="94" type="curve" smooth="yes"/>
      <point x="1206" y="94"/>
      <point x="1157" y="202"/>
      <point x="1157" y="383" type="curve" smooth="yes"/>
      <point x="1157" y="566"/>
      <point x="1205" y="673"/>
      <point x="1307" y="673" type="curve" smooth="yes"/>
      <point x="1407" y="673"/>
      <point x="1457" y="563"/>
      <point x="1457" y="383" type="curve" smooth="yes"/>
      <point x="1457" y="205"/>
      <point x="1408" y="94"/>
    </contour>
    <contour>
      <point x="448" y="640" type="curve" smooth="yes"/>
      <point x="632" y="640"/>
      <point x="757" y="809"/>
      <point x="757" y="1049" type="curve" smooth="yes"/>
      <point x="757" y="1282"/>
      <point x="626" y="1458"/>
      <point x="448" y="1458" type="curve" smooth="yes"/>
      <point x="271" y="1458"/>
      <point x="139" y="1281"/>
      <point x="139" y="1049" type="curve" smooth="yes"/>
      <point x="139" y="810"/>
      <point x="266" y="640"/>
    </contour>
    <contour>
      <point x="448" y="760" type="curve" smooth="yes"/>
      <point x="347" y="760"/>
      <point x="298" y="868"/>
      <point x="298" y="1049" type="curve" smooth="yes"/>
      <point x="298" y="1232"/>
      <point x="347" y="1338"/>
      <point x="448" y="1338" type="curve" smooth="yes"/>
      <point x="549" y="1338"/>
      <point x="599" y="1229"/>
      <point x="599" y="1049" type="curve" smooth="yes"/>
      <point x="599" y="870"/>
      <point x="549" y="760"/>
    </contour>
    <contour>
      <point x="2048" y="-26" type="curve" smooth="yes"/>
      <point x="2232" y="-26"/>
      <point x="2358" y="143"/>
      <point x="2358" y="383" type="curve" smooth="yes"/>
      <point x="2358" y="616"/>
      <point x="2226" y="792"/>
      <point x="2048" y="792" type="curve" smooth="yes"/>
      <point x="1872" y="792"/>
      <point x="1739" y="615"/>
      <point x="1739" y="383" type="curve" smooth="yes"/>
      <point x="1739" y="144"/>
      <point x="1866" y="-26"/>
    </contour>
    <contour>
      <point x="2048" y="94" type="curve" smooth="yes"/>
      <point x="1948" y="94"/>
      <point x="1899" y="202"/>
      <point x="1899" y="383" type="curve" smooth="yes"/>
      <point x="1899" y="566"/>
      <point x="1948" y="673"/>
      <point x="2048" y="673" type="curve" smooth="yes"/>
      <point x="2149" y="673"/>
      <point x="2199" y="564"/>
      <point x="2199" y="383" type="curve" smooth="yes"/>
      <point x="2199" y="204"/>
      <point x="2150" y="94"/>
    </contour>
  </outline>
</glyph>
<glyph name="kip" format="2">
  <advance width="1514"/>
  <unicode hex="20AD"/>
  <outline>
    <contour>
      <point x="1136" y="0" type="line"/>
      <point x="1370" y="0" type="line"/>
      <point x="714" y="774" type="line"/>
      <point x="535" y="707" type="line"/>
    </contour>
    <contour>
      <point x="183" y="0" type="line"/>
      <point x="389" y="0" type="line"/>
      <point x="389" y="1436" type="line"/>
      <point x="183" y="1436" type="line"/>
    </contour>
    <contour>
      <point x="272" y="651" type="line"/>
      <point x="723" y="651" type="line"/>
      <point x="723" y="786" type="line"/>
      <point x="272" y="786" type="line"/>
    </contour>
    <contour>
      <point x="612" y="706" type="line"/>
      <point x="963" y="1036" type="line"/>
      <point x="1185" y="1436" type="line"/>
      <point x="861" y="1138" type="line"/>
    </contour>
  </outline>
</glyph>
<glyph name="guarani" format="2">
  <advance width="1730"/>
  <unicode hex="20B2"/>
  <anchor x="860" y="0" name="bottom"/>
  <anchor x="860" y="1430" name="top"/>
  <outline>
    <contour>
      <point x="870" y="-25" type="curve" smooth="yes"/>
      <point x="1270" y="-25"/>
      <point x="1559" y="253"/>
      <point x="1584" y="657" type="curve"/>
      <point x="1363" y="657" type="line"/>
      <point x="1344" y="323"/>
      <point x="1151" y="106"/>
      <point x="868" y="100" type="curve"/>
      <point x="569" y="106"/>
      <point x="371" y="350"/>
      <point x="371" y="713" type="curve" smooth="yes"/>
      <point x="371" y="1077"/>
      <point x="571" y="1324"/>
      <point x="869" y="1328" type="curve"/>
      <point x="1060" y="1326"/>
      <point x="1208" y="1224"/>
      <point x="1292" y="1047" type="curve"/>
      <point x="1517" y="1047" type="line"/>
      <point x="1414" y="1292"/>
      <point x="1157" y="1453"/>
      <point x="868" y="1453" type="curve" smooth="yes"/>
      <point x="455" y="1453"/>
      <point x="151" y="1138"/>
      <point x="151" y="714" type="curve" smooth="yes"/>
      <point x="151" y="280"/>
      <point x="445" y="-25"/>
    </contour>
    <contour>
      <point x="1068" y="529" type="line"/>
      <point x="1498" y="529" type="line"/>
      <point x="1498" y="656" type="line"/>
      <point x="1068" y="656" type="line"/>
    </contour>
    <contour>
      <point x="799" y="-166" type="line"/>
      <point x="928" y="-166" type="line"/>
      <point x="928" y="1588" type="line"/>
      <point x="799" y="1588" type="line"/>
    </contour>
  </outline>
</glyph>
<glyph name="manat" format="2">
  <advance width="1328"/>
  <unicode hex="20BC"/>
  <outline>
    <contour>
      <point x="163" y="0" type="line"/>
      <point x="349" y="0" type="line"/>
      <point x="349" y="488" type="line"/>
      <point x="349" y="728"/>
      <point x="464" y="895"/>
      <point x="664" y="895" type="curve" smooth="yes"/>
      <point x="865" y="895"/>
      <point x="979" y="722"/>
      <point x="979" y="488" type="curve"/>
      <point x="979" y="0" type="line"/>
      <point x="1165" y="0" type="line"/>
      <point x="1165" y="488" type="line"/>
      <point x="1165" y="806"/>
      <point x="961" y="1028"/>
      <point x="664" y="1028" type="curve" smooth="yes"/>
      <point x="367" y="1028"/>
      <point x="163" y="806"/>
      <point x="163" y="488" type="curve"/>
    </contour>
    <contour>
      <point x="606" y="0" type="line"/>
      <point x="722" y="0" type="line"/>
      <point x="722" y="1277" type="line"/>
      <point x="606" y="1277" type="line"/>
    </contour>
  </outline>
</glyph>
<glyph name="trademark" format="2">
  <advance width="1405"/>
  <unicode hex="2122"/>
  <note>
trademark
</note>
  <outline>
    <contour>
      <point x="688" y="900" type="line"/>
      <point x="768" y="900" type="line"/>
      <point x="768" y="1348" type="line"/>
      <point x="944" y="900" type="line"/>
      <point x="996" y="900" type="line"/>
      <point x="1164" y="1348" type="line"/>
      <point x="1164" y="900" type="line"/>
      <point x="1244" y="900" type="line"/>
      <point x="1244" y="1422" type="line"/>
      <point x="1116" y="1422" type="line"/>
      <point x="970" y="1026" type="line"/>
      <point x="814" y="1422" type="line"/>
      <point x="688" y="1422" type="line"/>
    </contour>
    <contour>
      <point x="306" y="900" type="line"/>
      <point x="398" y="900" type="line"/>
      <point x="398" y="1356" type="line"/>
      <point x="566" y="1356" type="line"/>
      <point x="566" y="1422" type="line"/>
      <point x="136" y="1422" type="line"/>
      <point x="136" y="1356" type="line"/>
      <point x="306" y="1356" type="line"/>
    </contour>
  </outline>
</glyph>
<glyph name="partialdiff" format="2">
  <advance width="1117"/>
  <unicode hex="2202"/>
  <note>
partialdiff
</note>
  <outline>
    <contour>
      <point x="505" y="-26" type="curve" smooth="yes"/>
      <point x="769" y="-26"/>
      <point x="973" y="285"/>
      <point x="973" y="710" type="curve" smooth="yes"/>
      <point x="973" y="1090"/>
      <point x="835" y="1283"/>
      <point x="582" y="1283" type="curve" smooth="yes"/>
      <point x="446" y="1283"/>
      <point x="331" y="1213"/>
      <point x="331" y="1110" type="curve" smooth="yes"/>
      <point x="331" y="1054"/>
      <point x="364" y="1011"/>
      <point x="417" y="1011" type="curve" smooth="yes"/>
      <point x="451" y="1011"/>
      <point x="480" y="1038"/>
      <point x="529" y="1081" type="curve" smooth="yes"/>
      <point x="556" y="1103"/>
      <point x="585" y="1118"/>
      <point x="623" y="1118" type="curve" smooth="yes"/>
      <point x="734" y="1118"/>
      <point x="782" y="1020"/>
      <point x="782" y="834" type="curve" smooth="yes"/>
      <point x="782" y="786"/>
      <point x="780" y="731"/>
      <point x="775" y="666" type="curve"/>
      <point x="731" y="758"/>
      <point x="650" y="807"/>
      <point x="535" y="807" type="curve" smooth="yes"/>
      <point x="313" y="807"/>
      <point x="139" y="618"/>
      <point x="139" y="365" type="curve" smooth="yes"/>
      <point x="139" y="119"/>
      <point x="276" y="-26"/>
    </contour>
    <contour>
      <point x="493" y="109" type="curve" smooth="yes"/>
      <point x="396" y="109"/>
      <point x="342" y="178"/>
      <point x="342" y="304" type="curve" smooth="yes"/>
      <point x="342" y="506"/>
      <point x="422" y="659"/>
      <point x="566" y="659" type="curve" smooth="yes"/>
      <point x="667" y="659"/>
      <point x="721" y="597"/>
      <point x="721" y="475" type="curve" smooth="yes"/>
      <point x="721" y="273"/>
      <point x="633" y="109"/>
    </contour>
  </outline>
</glyph>
<glyph name="summation" format="2">
  <advance width="1490"/>
  <unicode hex="2211"/>
  <note>
summation
</note>
  <outline>
    <contour>
      <point x="136" y="-331" type="line"/>
      <point x="1351" y="-331" type="line"/>
      <point x="1351" y="-150" type="line"/>
      <point x="443" y="-150" type="line"/>
      <point x="1116" y="556" type="line"/>
      <point x="473" y="1213" type="line"/>
      <point x="1335" y="1213" type="line"/>
      <point x="1335" y="1400" type="line"/>
      <point x="169" y="1400" type="line"/>
      <point x="169" y="1246" type="line"/>
      <point x="849" y="550" type="line"/>
      <point x="136" y="-197" type="line"/>
    </contour>
  </outline>
</glyph>
<glyph name="infinity" format="2">
  <advance width="1600"/>
  <unicode hex="221E"/>
  <note>
infinity
</note>
  <outline>
    <contour>
      <point x="499" y="242" type="curve" smooth="yes"/>
      <point x="620" y="242"/>
      <point x="703" y="297"/>
      <point x="809" y="440" type="curve"/>
      <point x="911" y="302"/>
      <point x="996" y="244"/>
      <point x="1113" y="244" type="curve" smooth="yes"/>
      <point x="1324" y="244"/>
      <point x="1457" y="385"/>
      <point x="1457" y="606" type="curve" smooth="yes"/>
      <point x="1457" y="820"/>
      <point x="1314" y="965"/>
      <point x="1101" y="965" type="curve" smooth="yes"/>
      <point x="979" y="965"/>
      <point x="891" y="906"/>
      <point x="791" y="766" type="curve"/>
      <point x="697" y="901"/>
      <point x="607" y="963"/>
      <point x="488" y="963" type="curve" smooth="yes"/>
      <point x="276" y="963"/>
      <point x="143" y="821"/>
      <point x="143" y="601" type="curve" smooth="yes"/>
      <point x="143" y="388"/>
      <point x="286" y="242"/>
    </contour>
    <contour>
      <point x="470" y="408" type="curve" smooth="yes"/>
      <point x="354" y="408"/>
      <point x="298" y="473"/>
      <point x="298" y="586" type="curve" smooth="yes"/>
      <point x="298" y="720"/>
      <point x="366" y="791"/>
      <point x="493" y="791" type="curve" smooth="yes"/>
      <point x="584" y="791"/>
      <point x="659" y="722"/>
      <point x="712" y="631" type="curve"/>
      <point x="641" y="478"/>
      <point x="575" y="408"/>
    </contour>
    <contour>
      <point x="1110" y="416" type="curve" smooth="yes"/>
      <point x="1017" y="416"/>
      <point x="944" y="484"/>
      <point x="890" y="576" type="curve"/>
      <point x="960" y="726"/>
      <point x="1029" y="799"/>
      <point x="1132" y="799" type="curve" smooth="yes"/>
      <point x="1248" y="799"/>
      <point x="1304" y="734"/>
      <point x="1304" y="619" type="curve" smooth="yes"/>
      <point x="1304" y="484"/>
      <point x="1239" y="416"/>
    </contour>
  </outline>
</glyph>
<glyph name="approxequal" format="2">
  <advance width="1127"/>
  <unicode hex="2248"/>
  <note>
approxequal
</note>
  <outline>
    <contour>
      <point x="857" y="680" type="curve" smooth="yes"/>
      <point x="990" y="680"/>
      <point x="1123" y="762"/>
      <point x="1200" y="835" type="curve"/>
      <point x="1111" y="965" type="line"/>
      <point x="1039" y="907"/>
      <point x="938" y="868"/>
      <point x="855" y="868" type="curve" smooth="yes"/>
      <point x="783" y="868"/>
      <point x="732" y="901"/>
      <point x="696" y="923" type="curve" smooth="yes"/>
      <point x="612" y="971"/>
      <point x="547" y="997"/>
      <point x="472" y="997" type="curve" smooth="yes"/>
      <point x="365" y="997"/>
      <point x="241" y="935"/>
      <point x="136" y="823" type="curve"/>
      <point x="223" y="701" type="line"/>
      <point x="313" y="772"/>
      <point x="399" y="809"/>
      <point x="472" y="809" type="curve" smooth="yes"/>
      <point x="537" y="809"/>
      <point x="598" y="775"/>
      <point x="650" y="746" type="curve" smooth="yes"/>
      <point x="737" y="697"/>
      <point x="786" y="680"/>
    </contour>
    <contour>
      <point x="857" y="330" type="curve" smooth="yes"/>
      <point x="990" y="330"/>
      <point x="1123" y="413"/>
      <point x="1200" y="485" type="curve"/>
      <point x="1111" y="615" type="line"/>
      <point x="1038" y="558"/>
      <point x="938" y="518"/>
      <point x="855" y="518" type="curve" smooth="yes"/>
      <point x="779" y="518"/>
      <point x="729" y="553"/>
      <point x="692" y="574" type="curve" smooth="yes"/>
      <point x="604" y="626"/>
      <point x="540" y="647"/>
      <point x="472" y="647" type="curve" smooth="yes"/>
      <point x="365" y="647"/>
      <point x="243" y="586"/>
      <point x="136" y="474" type="curve"/>
      <point x="223" y="352" type="line"/>
      <point x="313" y="423"/>
      <point x="400" y="459"/>
      <point x="472" y="459" type="curve" smooth="yes"/>
      <point x="542" y="459"/>
      <point x="618" y="417"/>
      <point x="650" y="397" type="curve" smooth="yes"/>
      <point x="739" y="347"/>
      <point x="787" y="330"/>
    </contour>
  </outline>
</glyph>
<glyph name="_cyrillic_bar.case" format="2">
  <advance width="1101"/>
  <anchor x="656" y="454" name="_center"/>
  <outline>
    <contour>
      <point x="341" y="388" type="line"/>
      <point x="970" y="388" type="line"/>
      <point x="970" y="520" type="line"/>
      <point x="341" y="520" type="line"/>
    </contour>
  </outline>
</glyph>
<glyph name="_cyrillic_bar" format="2">
  <advance width="519"/>
  <anchor x="260" y="454" name="_center"/>
  <outline>
    <contour>
      <point x="0" y="388" type="line"/>
      <point x="519" y="388" type="line"/>
      <point x="519" y="520" type="line"/>
      <point x="0" y="520" type="line"/>
    </contour>
  </outline>
</glyph>
<glyph name="_cyrillicdescender01.case" format="2">
  <advance width="68"/>
  <anchor x="134" y="0" name="_bottomright"/>
  <outline>
    <contour>
      <point x="134" y="0" type="line"/>
      <point x="134" y="128" type="line"/>
      <point x="-132" y="128" type="line"/>
      <point x="-132" y="0" type="line"/>
    </contour>
    <component base="_cyrillicdescender02.case"/>
  </outline>
</glyph>
<glyph name="_cyrillicdescender02" format="2">
  <advance width="1261"/>
  <anchor x="237" y="0" name="_bottomright"/>
  <outline>
    <contour>
      <point x="67" y="0" type="line"/>
      <point x="296" y="0" type="line"/>
      <point x="296" y="132" type="line"/>
      <point x="67" y="132" type="line"/>
    </contour>
    <component base="_cyrillicdescender01" xOffset="109"/>
  </outline>
</glyph>
<glyph name="brevecomb-cy" format="2">
  <anchor x="351" y="1001" name="_top"/>
  <outline>
    <contour>
      <point x="351" y="1072" type="curve" smooth="yes"/>
      <point x="559" y="1072"/>
      <point x="634" y="1137"/>
      <point x="681" y="1357" type="curve"/>
      <point x="564" y="1357" type="line"/>
      <point x="506" y="1214"/>
      <point x="466" y="1178"/>
      <point x="351" y="1178" type="curve" smooth="yes"/>
      <point x="237" y="1178"/>
      <point x="192" y="1214"/>
      <point x="133" y="1357" type="curve"/>
      <point x="21" y="1357" type="line"/>
      <point x="67" y="1137"/>
      <point x="144" y="1072"/>
    </contour>
  </outline>
</glyph>
<glyph name="eight.dnom" format="2">
  <advance width="718"/>
  <note>
eight
</note>
  <outline>
    <contour>
      <point x="359" y="-21" type="curve" smooth="yes"/>
      <point x="578" y="-21"/>
      <point x="694" y="80"/>
      <point x="694" y="257" type="curve" smooth="yes"/>
      <point x="694" y="405"/>
      <point x="574" y="503"/>
      <point x="430" y="548" type="curve" smooth="yes"/>
      <point x="262" y="599"/>
      <point x="220" y="649"/>
      <point x="220" y="727" type="curve" smooth="yes"/>
      <point x="220" y="806"/>
      <point x="277" y="857"/>
      <point x="368" y="857" type="curve" smooth="yes"/>
      <point x="455" y="857"/>
      <point x="515" y="801"/>
      <point x="515" y="720" type="curve" smooth="yes"/>
      <point x="515" y="648"/>
      <point x="468" y="590"/>
      <point x="258" y="533" type="curve"/>
      <point x="465" y="487" type="line"/>
      <point x="572" y="531"/>
      <point x="648" y="612"/>
      <point x="648" y="724" type="curve" smooth="yes"/>
      <point x="648" y="860"/>
      <point x="527" y="957"/>
      <point x="358" y="957" type="curve" smooth="yes"/>
      <point x="182" y="956"/>
      <point x="69" y="858"/>
      <point x="69" y="705" type="curve" smooth="yes"/>
      <point x="69" y="573"/>
      <point x="198" y="496"/>
      <point x="330" y="453" type="curve" smooth="yes"/>
      <point x="504" y="395"/>
      <point x="538" y="337"/>
      <point x="538" y="254" type="curve" smooth="yes"/>
      <point x="538" y="149"/>
      <point x="472" y="86"/>
      <point x="354" y="86" type="curve" smooth="yes"/>
      <point x="235" y="86"/>
      <point x="167" y="149"/>
      <point x="166" y="248" type="curve" smooth="yes"/>
      <point x="165" y="343"/>
      <point x="222" y="426"/>
      <point x="364" y="490" type="curve"/>
      <point x="239" y="530" type="line"/>
      <point x="103" y="481"/>
      <point x="25" y="377"/>
      <point x="25" y="247" type="curve" smooth="yes"/>
      <point x="25" y="78"/>
      <point x="150" y="-21"/>
    </contour>
  </outline>
</glyph>
<glyph name="f_f" format="2">
  <advance width="1246"/>
  <anchor x="595.5" y="0" name="caret_1"/>
  <outline>
    <contour>
      <point x="679" y="0" type="line"/>
      <point x="883" y="0" type="line"/>
      <point x="883" y="1056" type="line" smooth="yes"/>
      <point x="883" y="1275"/>
      <point x="850" y="1408"/>
      <point x="966" y="1408" type="curve" smooth="yes"/>
      <point x="1016" y="1408"/>
      <point x="1071" y="1394"/>
      <point x="1071" y="1337" type="curve" smooth="yes"/>
      <point x="1071" y="1318"/>
      <point x="1067" y="1294"/>
      <point x="1058" y="1264" type="curve"/>
      <point x="1198" y="1264" type="line"/>
      <point x="1206" y="1281"/>
      <point x="1216" y="1324"/>
      <point x="1216" y="1356" type="curve" smooth="yes"/>
      <point x="1216" y="1477"/>
      <point x="1085" y="1549"/>
      <point x="943" y="1549" type="curve" smooth="yes"/>
      <point x="730" y="1549"/>
      <point x="679" y="1365"/>
      <point x="679" y="1105" type="curve"/>
    </contour>
    <contour>
      <point x="287" y="0" type="line"/>
      <point x="491" y="0" type="line"/>
      <point x="491" y="956" type="line" smooth="yes"/>
      <point x="491" y="1175"/>
      <point x="458" y="1308"/>
      <point x="574" y="1308" type="curve" smooth="yes"/>
      <point x="624" y="1308"/>
      <point x="679" y="1294"/>
      <point x="679" y="1237" type="curve"/>
      <point x="679" y="1064" type="line"/>
      <point x="806" y="1164" type="line"/>
      <point x="814" y="1181"/>
      <point x="824" y="1224"/>
      <point x="824" y="1256" type="curve" smooth="yes"/>
      <point x="824" y="1377"/>
      <point x="693" y="1449"/>
      <point x="551" y="1449" type="curve" smooth="yes"/>
      <point x="338" y="1449"/>
      <point x="287" y="1265"/>
      <point x="287" y="1005" type="curve" smooth="yes"/>
    </contour>
    <contour>
      <point x="77" y="842" type="line"/>
      <point x="722" y="842" type="line"/>
      <point x="722" y="974" type="line"/>
      <point x="77" y="974" type="line"/>
    </contour>
    <contour>
      <point x="469" y="842" type="line"/>
      <point x="1114" y="842" type="line"/>
      <point x="1114" y="974" type="line"/>
      <point x="469" y="974" type="line"/>
    </contour>
  </outline>
</glyph>
<glyph name="m.rvrn" format="2">
  <advance width="1802"/>
  <note>
m
</note>
  <anchor x="896" y="19" name="bottom"/>
  <anchor x="896" y="996" name="top"/>
  <outline>
    <contour>
      <point x="108" y="0" type="line"/>
      <point x="312" y="0" type="line"/>
      <point x="312" y="541" type="line" smooth="yes"/>
      <point x="312" y="751"/>
      <point x="425" y="894"/>
      <point x="600" y="894" type="curve" smooth="yes"/>
      <point x="751" y="894"/>
      <point x="814" y="805"/>
      <point x="814" y="602" type="curve" smooth="yes"/>
      <point x="814" y="0" type="line"/>
      <point x="1018" y="0" type="line"/>
      <point x="1018" y="740" type="line"/>
      <point x="1002" y="740" type="line"/>
      <point x="964" y="930"/>
      <point x="841" y="1028"/>
      <point x="642" y="1028" type="curve" smooth="yes"/>
      <point x="438" y="1028"/>
      <point x="316" y="932"/>
      <point x="242" y="718" type="curve"/>
      <point x="313" y="596" type="line"/>
      <point x="313" y="1003" type="line"/>
      <point x="108" y="1003" type="line"/>
    </contour>
    <contour>
      <point x="1497" y="0" type="line"/>
      <point x="1702" y="0" type="line"/>
      <point x="1702" y="653" type="line" smooth="yes"/>
      <point x="1702" y="892"/>
      <point x="1570" y="1028"/>
      <point x="1332" y="1028" type="curve" smooth="yes"/>
      <point x="1115" y="1028"/>
      <point x="996" y="925"/>
      <point x="909" y="672" type="curve"/>
      <point x="1022" y="468" type="line"/>
      <point x="996" y="730"/>
      <point x="1097" y="887"/>
      <point x="1292" y="887" type="curve" smooth="yes"/>
      <point x="1441" y="887"/>
      <point x="1497" y="807"/>
      <point x="1497" y="602" type="curve" smooth="yes"/>
    </contour>
  </outline>
</glyph>
<glyph name="n.t" format="2">
  <advance width="1110"/>
  <note>
n
</note>
  <anchor x="563" y="52" name="bottom"/>
  <anchor x="594" y="954" name="top"/>
  <outline>
    <contour>
      <point x="108" y="0" type="line"/>
      <point x="313" y="0" type="line"/>
      <point x="313" y="541" type="line" smooth="yes"/>
      <point x="313" y="745"/>
      <point x="431" y="893"/>
      <point x="599" y="893" type="curve" smooth="yes"/>
      <point x="753" y="893"/>
      <point x="806" y="814"/>
      <point x="806" y="579" type="curve" smooth="yes"/>
      <point x="806" y="0" type="line"/>
      <point x="1011" y="0" type="line"/>
      <point x="1011" y="611" type="line" smooth="yes"/>
      <point x="1011" y="881"/>
      <point x="874" y="1029"/>
      <point x="624" y="1029" type="curve" smooth="yes"/>
      <point x="414" y="1029"/>
      <point x="290" y="914"/>
      <point x="246" y="684" type="curve"/>
      <point x="312" y="582" type="line"/>
      <point x="313" y="1001" type="line"/>
      <point x="108" y="1001" type="line"/>
    </contour>
  </outline>
</glyph>
<glyph name="nine.dnom" format="2">
  <advance width="711"/>
  <note>
nine
</note>
  <outline>
    <contour>
      <point x="135" y="-29" type="line"/>
      <point x="297" y="-20"/>
      <point x="430" y="43"/>
      <point x="482" y="73" type="curve" smooth="yes"/>
      <point x="566" y="121"/>
      <point x="602" y="186"/>
      <point x="623" y="233" type="curve" smooth="yes"/>
      <point x="688" y="376"/>
      <point x="682" y="496"/>
      <point x="682" y="583" type="curve" smooth="yes"/>
      <point x="682" y="845"/>
      <point x="529" y="959"/>
      <point x="347" y="960" type="curve" smooth="yes"/>
      <point x="139" y="960"/>
      <point x="10" y="826"/>
      <point x="10" y="650" type="curve" smooth="yes"/>
      <point x="10" y="458"/>
      <point x="134" y="330"/>
      <point x="327" y="330" type="curve" smooth="yes"/>
      <point x="412" y="330"/>
      <point x="550" y="360"/>
      <point x="583" y="516" type="curve"/>
      <point x="538" y="472" type="line"/>
      <point x="539" y="406"/>
      <point x="547" y="339"/>
      <point x="478" y="247" type="curve" smooth="yes"/>
      <point x="425" y="176"/>
      <point x="333" y="100"/>
      <point x="135" y="86" type="curve"/>
    </contour>
    <contour>
      <point x="332" y="445" type="curve" smooth="yes"/>
      <point x="198" y="445"/>
      <point x="155" y="550"/>
      <point x="155" y="645" type="curve" smooth="yes"/>
      <point x="155" y="773"/>
      <point x="233" y="846"/>
      <point x="344" y="845" type="curve" smooth="yes"/>
      <point x="466" y="844"/>
      <point x="527" y="749"/>
      <point x="525" y="636" type="curve" smooth="yes"/>
      <point x="524" y="506"/>
      <point x="439" y="445"/>
    </contour>
  </outline>
</glyph>
<glyph name="o.t" format="2">
  <advance width="1194"/>
  <note>
o
</note>
  <anchor x="598" y="24" name="bottom"/>
  <anchor x="598" y="499" name="center"/>
  <anchor x="1050" y="24" name="ogonek"/>
  <anchor x="592" y="983" name="top"/>
  <anchor x="1142" y="983" name="topright"/>
  <outline>
    <contour>
      <point x="597" y="-32" type="curve" smooth="yes"/>
      <point x="908" y="-32"/>
      <point x="1112" y="175"/>
      <point x="1112" y="489" type="curve" smooth="yes"/>
      <point x="1112" y="807"/>
      <point x="903" y="1026"/>
      <point x="597" y="1026" type="curve" smooth="yes"/>
      <point x="291" y="1026"/>
      <point x="82" y="807"/>
      <point x="82" y="489" type="curve" smooth="yes"/>
      <point x="82" y="175"/>
      <point x="286" y="-32"/>
    </contour>
    <contour>
      <point x="597" y="102" type="curve" smooth="yes"/>
      <point x="418" y="102"/>
      <point x="300" y="261"/>
      <point x="300" y="493" type="curve" smooth="yes"/>
      <point x="300" y="727"/>
      <point x="423" y="894"/>
      <point x="597" y="894" type="curve" smooth="yes"/>
      <point x="770" y="894"/>
      <point x="893" y="723"/>
      <point x="893" y="489" type="curve" smooth="yes"/>
      <point x="893" y="258"/>
      <point x="776" y="102"/>
    </contour>
  </outline>
</glyph>
<glyph name="one.tf" format="2">
  <advance width="1200"/>
  <outline>
    <contour>
      <point x="494" y="0" type="line"/>
      <point x="703" y="0" type="line"/>
      <point x="703" y="1426" type="line"/>
      <point x="608" y="1426" type="line"/>
      <point x="262" y="949" type="line"/>
      <point x="339" y="889" type="line"/>
      <point x="559" y="1168" type="line"/>
      <point x="494" y="1198" type="line"/>
    </contour>
    <contour>
      <point x="227" y="0" type="line"/>
      <point x="973" y="0" type="line"/>
      <point x="973" y="156" type="line"/>
      <point x="227" y="156" type="line"/>
    </contour>
  </outline>
</glyph>
<glyph name="seven.dnom" format="2">
  <advance width="670"/>
  <note>
seven
</note>
  <outline>
    <contour>
      <point x="150" y="0" type="curve"/>
      <point x="314" y="0" type="line"/>
      <point x="390" y="376"/>
      <point x="533" y="693"/>
      <point x="681" y="938" type="curve"/>
      <point x="-2" y="938" type="line"/>
      <point x="-2" y="787" type="line"/>
      <point x="521" y="787" type="line"/>
      <point x="481" y="851" type="line"/>
      <point x="394" y="706"/>
      <point x="252" y="405"/>
    </contour>
  </outline>
</glyph>
<glyph name="slashlongcomb.case" format="2">
  <anchor x="762.0" y="721" name="_center"/>
  <outline>
    <contour>
      <point x="215" y="-45" type="line"/>
      <point x="357" y="-45" type="line"/>
      <point x="1310" y="1487" type="line"/>
      <point x="1167" y="1487" type="line"/>
    </contour>
  </outline>
</glyph>
<glyph name="three.dnom" format="2">
  <advance width="735"/>
  <note>
three
</note>
  <outline>
    <contour>
      <point x="346" y="-31" type="curve" smooth="yes"/>
      <point x="570" y="-31"/>
      <point x="703" y="77"/>
      <point x="703" y="259" type="curve" smooth="yes"/>
      <point x="703" y="393"/>
      <point x="627" y="490"/>
      <point x="473" y="504" type="curve"/>
      <point x="410" y="457" type="line"/>
      <point x="565" y="470"/>
      <point x="680" y="555"/>
      <point x="680" y="701" type="curve" smooth="yes"/>
      <point x="680" y="850"/>
      <point x="573" y="965"/>
      <point x="369" y="965" type="curve" smooth="yes"/>
      <point x="154" y="965"/>
      <point x="39" y="839"/>
      <point x="34" y="695" type="curve"/>
      <point x="184" y="694" type="line"/>
      <point x="185" y="794"/>
      <point x="239" y="857"/>
      <point x="357" y="857" type="curve" smooth="yes"/>
      <point x="471" y="857"/>
      <point x="512" y="780"/>
      <point x="512" y="693" type="curve" smooth="yes"/>
      <point x="512" y="571"/>
      <point x="449" y="527"/>
      <point x="345" y="527" type="curve" smooth="yes"/>
      <point x="211" y="527" type="line"/>
      <point x="211" y="442" type="line"/>
      <point x="348" y="442" type="line" smooth="yes"/>
      <point x="454" y="442"/>
      <point x="517" y="387"/>
      <point x="517" y="262" type="curve" smooth="yes"/>
      <point x="517" y="156"/>
      <point x="469" y="72"/>
      <point x="350" y="72" type="curve" smooth="yes"/>
      <point x="246" y="72"/>
      <point x="176" y="128"/>
      <point x="176" y="232" type="curve" smooth="yes"/>
      <point x="176" y="251" type="line"/>
      <point x="14" y="251" type="line"/>
      <point x="14" y="231" type="line" smooth="yes"/>
      <point x="14" y="67"/>
      <point x="130" y="-31"/>
    </contour>
  </outline>
</glyph>
<glyph name="three.osf" format="2">
  <advance width="1173"/>
  <outline>
    <contour>
      <point x="526" y="-319" type="curve" smooth="yes"/>
      <point x="818" y="-319"/>
      <point x="1044" y="-127"/>
      <point x="1044" y="140" type="curve" smooth="yes"/>
      <point x="1044" y="375"/>
      <point x="862" y="493"/>
      <point x="718" y="475" type="curve"/>
      <point x="498" y="377" type="line"/>
      <point x="842" y="452"/>
      <point x="974" y="531"/>
      <point x="974" y="707" type="curve" smooth="yes"/>
      <point x="974" y="908"/>
      <point x="809" y="1023"/>
      <point x="582" y="1023" type="curve" smooth="yes"/>
      <point x="316" y="1023"/>
      <point x="146" y="870"/>
      <point x="154" y="712" type="curve"/>
      <point x="305" y="706" type="line"/>
      <point x="300" y="791"/>
      <point x="407" y="904"/>
      <point x="574" y="904" type="curve" smooth="yes"/>
      <point x="715" y="904"/>
      <point x="801" y="830"/>
      <point x="801" y="700" type="curve" smooth="yes"/>
      <point x="801" y="576"/>
      <point x="721" y="509"/>
      <point x="525" y="468" type="curve" smooth="yes"/>
      <point x="350" y="431" type="line"/>
      <point x="380" y="324" type="line"/>
      <point x="548" y="362"/>
      <point x="595" y="365"/>
      <point x="632" y="365" type="curve" smooth="yes"/>
      <point x="787" y="365"/>
      <point x="847" y="256"/>
      <point x="846" y="142" type="curve" smooth="yes"/>
      <point x="843" y="-82"/>
      <point x="667" y="-191"/>
      <point x="508" y="-191" type="curve" smooth="yes"/>
      <point x="349" y="-191"/>
      <point x="262" y="-134"/>
      <point x="207" y="-88" type="curve"/>
      <point x="122" y="-162" type="line"/>
      <point x="217" y="-256"/>
      <point x="349" y="-319"/>
    </contour>
  </outline>
</glyph>
<glyph name="w.rvrn" format="2">
  <advance width="1791"/>
  <note>
w
</note>
  <anchor x="895" y="-11" name="bottom"/>
  <anchor x="895" y="1001" name="top"/>
  <outline>
    <contour>
      <point x="1161" y="-26" type="line"/>
      <point x="1213" y="-26" type="line"/>
      <point x="1718" y="1001" type="line"/>
      <point x="1600" y="1001" type="line"/>
      <point x="1217" y="201" type="line"/>
      <point x="1286" y="209" type="line"/>
      <point x="888" y="1001" type="line"/>
      <point x="657" y="1001" type="line"/>
    </contour>
    <contour>
      <point x="578" y="-26" type="line"/>
      <point x="628" y="-26" type="line"/>
      <point x="948" y="650" type="line"/>
      <point x="889" y="771" type="line"/>
      <point x="637" y="216" type="line"/>
      <point x="684" y="209" type="line"/>
      <point x="304" y="1001" type="line"/>
      <point x="73" y="1001" type="line"/>
    </contour>
  </outline>
</glyph>
